<?xml version="1.0" encoding="UTF-8"?>
<!DOCTYPE svg PUBLIC "-//W3C//DTD SVG 1.1//EN" "http://www.w3.org/Graphics/SVG/1.1/DTD/svg11.dtd">
<svg xmlns="http://www.w3.org/2000/svg" xml:space="preserve" width="2700px" height="300px" style="shape-rendering:geometricPrecision; text-rendering:geometricPrecision; image-rendering:optimizeQuality; fill-rule:evenodd; clip-rule:evenodd"
viewBox="0 0 2700 293.478"
 xmlns:xlink="http://www.w3.org/1999/xlink">
 <defs>
  <style type="text/css">
   <![CDATA[
    .fil0 {fill:url(#id0);fill-rule:nonzero}
   ]]>
  </style>
  <linearGradient id="id0" gradientUnits="userSpaceOnUse" x1="1297.8" y1="288.537" x2="1297.8" y2="9.60261">
   <stop offset="0" style="stop-color:#28166F"/>
   <stop offset="1" style="stop-color:#005CA1"/>
  </linearGradient>
 </defs>
 <g id="Layer_x0020_1">
  <metadata id="CorelCorpID_0Corel-Layer"/>
  <path class="fil0" d="M174.864 13.2993l101.965 271.478 -43.5263 0 -27.5952 -76.3454 -111.65 0 -28.2326 76.3454 -43.8433 0 102.473 -271.478 50.409 0zm-24.982 32.6923l-46.3297 129.748 92.0864 0 -45.7568 -129.748zm369.684 163.014c0,11.5349 -2.16704,22.241 -6.43539,31.9915 -4.33409,9.74935 -10.9608,18.1628 -20.0105,25.1722 -8.9863,7.074 -20.4566,12.555 -34.3499,16.4407 -13.8287,3.95257 -30.3351,5.92709 -49.3889,5.92709 -33.4565,0 -59.3941,-6.05387 -77.7483,-18.0337 -18.353,-12.0455 -30.1426,-29.4429 -35.3677,-52.1933l41.4227 -8.22091c1.65639,6.75587 4.14274,12.8731 7.51891,18.4163 3.31513,5.54439 7.90396,10.3246 13.7019,14.3393 5.79913,4.07935 12.9377,7.20196 21.3488,9.36783 8.47565,2.16704 18.6077,3.25057 30.4619,3.25057 10.0698,0 19.2463,-0.892174 27.4672,-2.61313 8.22091,-1.72096 15.2303,-4.39748 21.0929,-8.02957 5.79913,-3.63326 10.3246,-8.22091 13.5106,-13.8287 3.186,-5.60896 4.779,-12.2991 4.779,-20.1385 0,-8.73039 -2.22926,-15.8032 -6.62674,-21.2842 -4.46087,-5.47983 -10.2612,-10.0053 -17.5899,-13.574 -7.26417,-3.5053 -15.5485,-6.43657 -24.7883,-8.73039 -9.30561,-2.295 -18.7368,-4.65339 -28.296,-7.01061 -7.32874,-1.72096 -14.7209,-3.5687 -22.0496,-5.41761 -7.32874,-1.84774 -14.4027,-4.14157 -21.1574,-6.81809 -6.81926,-2.67652 -13.129,-5.8003 -18.9904,-9.43239 -5.86252,-3.63209 -10.8974,-8.02839 -15.1681,-13.2547 -4.33291,-5.22509 -7.71026,-11.3435 -10.1954,-18.2896 -2.48635,-6.94604 -3.76004,-15.1036 -3.76004,-24.4714 0,-12.9365 2.54857,-24.0265 7.64687,-33.203 5.09948,-9.23987 12.2357,-16.8233 21.2854,-22.687 9.11191,-5.92591 19.8192,-10.2588 32.2462,-12.9987 12.3625,-2.74109 25.8097,-4.07935 40.2124,-4.07935 16.5686,0 30.7154,1.33826 42.3783,4.01596 11.7262,2.67535 21.539,6.69013 29.5063,12.0432 7.965,5.35304 14.4016,11.9798 19.2451,19.9471 4.84357,7.965 8.667,17.2694 11.5337,27.8487l-41.9956 6.30861c-1.46504,-6.43657 -3.76004,-12.1089 -6.88265,-16.8879 -3.12261,-4.78017 -7.13739,-8.79378 -12.0455,-12.0443 -4.90578,-3.25057 -10.8974,-5.67117 -17.9057,-7.26535 -7.07517,-1.65639 -15.2961,-2.42061 -24.7907,-2.42061 -11.0254,0 -20.3287,1.01896 -27.7853,3.05922 -7.45552,2.03791 -13.5094,4.90696 -18.0337,8.47565 -4.52543,3.63326 -7.77483,7.83822 -9.6883,12.6172 -1.91113,4.78017 -2.93009,9.94187 -2.93009,15.4217 0,7.58465 1.84774,13.8299 5.41643,18.7357 3.63209,4.90813 8.54022,9.0497 14.7843,12.3648 6.24522,3.24939 13.5106,6.05387 21.8583,8.3477 8.28548,2.35722 17.2706,4.65222 26.8943,7.00943 7.965,1.9123 15.9312,3.82461 24.0241,5.79913 8.09296,1.9757 15.8044,4.33409 23.1965,7.01061 7.32991,2.67535 14.2126,5.86252 20.5846,9.62257 6.43657,3.69665 11.981,8.34887 16.7611,13.8287 4.71561,5.481 8.41109,11.9164 11.0876,19.3097 2.67652,7.39213 4.01478,16.1225 4.01478,26.2557zm252.424 -195.707l0 34.54 -92.9774 0 0 236.938 -42.9523 0 0 -236.938 -90.1741 0 0 -34.54 226.104 0zm236.748 271.478l-196.98 0 0 -271.478 188.761 0 0 33.7747 -145.49 0 0 82.5284 133.891 0 0 33.0727 -133.891 0 0 88.7103 153.71 0 0 33.392zm210.747 -192.138c0,-15.5497 -5.0983,-27.4027 -15.2949,-35.5602 -10.1966,-8.15752 -24.4702,-12.2357 -42.7621,-12.2357l-56.5885 0 0 97.1213 58.1193 0c9.81274,0 18.2896,-1.27487 25.427,-3.82461 7.20078,-2.54857 13.0633,-6.05387 17.6521,-10.4513 4.65339,-4.4597 8.02957,-9.62257 10.1966,-15.613 2.16704,-5.9893 3.25057,-12.4259 3.25057,-19.4365zm43.7165 -0.381522c0,8.73039 -1.27487,17.2049 -3.82343,25.299 -2.54974,8.15752 -6.50113,15.6776 -11.7896,22.4323 -5.28965,6.7547 -11.981,12.6806 -20.0739,17.6521 -8.09296,4.97035 -17.6521,8.667 -28.7421,11.0254l75.7726 116.111 -48.8782 0 -68.5072 -111.651 -52.3201 0 0 111.651 -43.2704 0 0 -271.478 103.62 0c15.9323,0 29.9512,1.84774 42.1869,5.54322 12.1723,3.63326 22.4323,8.85952 30.7166,15.6788 8.2843,6.75352 14.5307,15.039 18.7357,24.7883 4.2707,9.81509 6.37317,20.7759 6.37317,32.9482zm287.856 149.758c-5.60896,6.24639 -12.2357,12.1723 -19.9471,17.8435 -7.71026,5.67235 -16.3773,10.5781 -25.9364,14.8488 -9.62257,4.20613 -20.0739,7.58465 -31.4174,10.0687 -11.2801,2.48517 -23.389,3.76004 -36.1976,3.76004 -21.9217,0 -40.9132,-3.50413 -57.0991,-10.4513 -16.1871,-7.00943 -29.6343,-16.76 -40.3403,-29.2504 -10.7061,-12.4916 -18.7357,-27.3393 -24.0253,-44.5453 -5.28965,-17.1438 -7.90161,-36.0063 -7.90161,-56.5263 0,-21.1574 2.61196,-40.2758 7.83822,-57.355 5.22509,-17.0147 13.1279,-31.5454 23.706,-43.4618 10.5793,-11.9798 23.834,-21.1586 39.7675,-27.6586 15.9312,-6.49878 34.5389,-9.68596 55.8243,-9.68596 15.4217,0 29.059,1.65639 40.7853,5.03491 11.7896,3.31278 22.0496,7.90161 30.8446,13.7007 8.73039,5.8003 16.1859,12.6818 22.3677,20.648 6.183,7.96617 11.3435,16.5064 15.613,25.5549l-39.0655 14.0189c-2.73991,-5.9893 -6.11726,-11.6605 -10.132,-17.0781 -4.07817,-5.41643 -8.92057,-10.1966 -14.6563,-14.276 -5.73691,-4.14157 -12.3637,-7.39213 -19.8837,-9.81274 -7.51891,-2.42178 -16.1859,-3.63209 -25.873,-3.63209 -14.5941,0 -27.0833,2.484 -37.5347,7.45552 -10.4513,4.97035 -19.1183,11.981 -25.9376,21.0307 -6.88265,8.98513 -11.9176,19.946 -15.1047,32.7557 -3.24939,12.8097 -4.90578,27.0833 -4.90578,42.761 0,15.5497 1.84774,29.8244 5.41761,42.8889 3.63209,13.1279 8.98396,24.3434 16.1859,33.838 7.13739,9.43239 16.0603,16.7611 26.7652,21.9874 10.7073,5.22509 23.1331,7.83822 37.3445,7.83822 8.98513,0 17.206,-0.828783 24.7273,-2.61313 7.51891,-1.72096 14.4004,-3.95022 20.5834,-6.62791 6.11726,-2.67652 11.5971,-5.67235 16.3773,-9.04852 4.84357,-3.31513 8.85835,-6.69248 12.0443,-10.0687l0 -47.0317 -72.9669 0 0 -32.3096 112.733 0 0 95.3992zm180.157 -228.717l101.965 271.478 -43.5263 0 -27.594 -76.3454 -111.65 0 -28.2326 76.3454 -43.8433 0 102.473 -271.478 50.4078 0zm-24.9809 32.6923l-46.3297 129.748 92.0864 0 -45.7568 -129.748zm140.584 238.786l0 -31.1627 159.827 -205.775 -145.234 0 0 -34.54 193.795 0 0 30.8446 -159.828 206.476 169.515 0 0 34.1573 -218.075 0zm461.004 0l-196.981 0 0 -271.478 188.761 0 0 33.7747 -145.49 0 0 82.5284 133.891 0 0 33.0727 -133.891 0 0 88.7103 153.711 0 0 33.392zm210.746 -192.138c0,-15.5497 -5.09713,-27.4027 -15.2949,-35.5602 -10.1954,-8.15752 -24.4702,-12.2357 -42.761,-12.2357l-56.5897 0 0 97.1213 58.1204 0c9.81274,0 18.2896,-1.27487 25.427,-3.82461 7.19961,-2.54857 13.0633,-6.05387 17.651,-10.4513 4.65339,-4.4597 8.03074,-9.62257 10.1978,-15.613 2.16704,-5.9893 3.24939,-12.4259 3.24939,-19.4365zm43.7177 -0.381522c0,8.73039 -1.27487,17.2049 -3.82343,25.299 -2.54974,8.15752 -6.50113,15.6776 -11.7896,22.4323 -5.28965,6.7547 -11.9821,12.6806 -20.0739,17.6521 -8.09413,4.97035 -17.6533,8.667 -28.7421,11.0254l75.7726 116.111 -48.8782 0 -68.5084 -111.651 -52.3201 0 0 111.651 -43.2704 0 0 -271.478 103.621 0c15.9312,0 29.95,1.84774 42.1857,5.54322 12.1723,3.63326 22.4335,8.85952 30.7178,15.6788 8.2843,6.75352 14.5295,15.039 18.7357,24.7883 4.2707,9.81509 6.37317,20.7759 6.37317,32.9482z"/>
 </g>
</svg>
