<?xml version="1.0" encoding="UTF-8"?>
<!DOCTYPE svg PUBLIC "-//W3C//DTD SVG 1.1//EN" "http://www.w3.org/Graphics/SVG/1.1/DTD/svg11.dtd">
<svg xmlns="http://www.w3.org/2000/svg" xml:space="preserve" width="2700px" height="3600px" style="shape-rendering:geometricPrecision; text-rendering:geometricPrecision; image-rendering:optimizeQuality; fill-rule:evenodd; clip-rule:evenodd"
viewBox="0 0 2700 3645"
 xmlns:xlink="http://www.w3.org/1999/xlink">
 <defs>
  <style type="text/css">
   <![CDATA[
    .str0 {stroke:#DA251D;stroke-width:155.864}
    .fil2 {fill:#DA251D}
    .fil1 {fill:#DA251D;fill-rule:nonzero}
    .fil0 {fill:url(#id0)}
   ]]>
  </style>
  <linearGradient id="id0" gradientUnits="userSpaceOnUse" x1="256.005" y1="43.3792" x2="2449.27" y2="2590.99">
   <stop offset="0" style="stop-color:white"/>
   <stop offset="1" style="stop-color:#C2C1C1"/>
  </linearGradient>
 </defs>
 <g id="Layer_x0020_1">
  <metadata id="CorelCorpID_0Corel-Layer"/>
  <rect class="fil0 str0" x="125.366" y="89.9142" width="2454.54" height="2454.55" rx="165.8" ry="165.8"/>
  <path class="fil1" d="M881.588 747.511c0,48.6184 -20.5777,88.0777 -61.846,118.378 -41.1554,30.4143 -97.0085,45.565 -167.674,45.565 -40.9283,0 -76.5438,-3.618 -106.845,-10.7411 -30.4143,-7.236 -58.7925,-16.281 -85.363,-27.3608l0 -118.265 13.9075 0c26.3434,21.0293 55.7403,37.0845 88.3023,48.3914 32.562,11.3056 63.8808,16.8468 93.9551,16.8468 7.68886,0 17.8642,-0.565773 30.4143,-1.92314 12.663,-1.35614 22.8395,-3.50509 30.8671,-6.67023 9.72245,-3.95673 17.6371,-8.93209 23.9686,-14.9249 6.3315,-5.87864 9.49786,-14.6978 9.49786,-26.4563 0,-10.854 -4.63541,-20.126 -13.7933,-28.0395 -9.15914,-7.80177 -22.6137,-13.7945 -40.2509,-17.9771 -18.5429,-4.40959 -38.1031,-8.59336 -58.7937,-12.4372 -20.6906,-3.84382 -40.0238,-8.81918 -58.1138,-14.699 -41.4953,-13.5675 -71.3438,-31.7704 -89.6596,-54.8358 -18.2029,-23.0641 -27.2479,-51.7823 -27.2479,-86.0404 0,-45.9037 20.5765,-83.3281 61.7318,-112.385 41.1554,-29.0581 94.1821,-43.5301 158.854,-43.5301 32.4491,0 64.5595,3.05345 96.217,9.38495 31.6575,6.3315 59.1325,14.245 82.3107,23.7428l0 113.515 -13.5675 0c-19.9002,-15.8281 -44.2088,-29.1698 -73.0399,-39.9109 -28.8311,-10.6282 -58.2267,-16.0552 -88.3023,-16.0552 -10.6282,0 -21.1422,0.791591 -31.6575,2.14773 -10.4024,1.47027 -20.5777,4.18377 -30.3014,8.14173 -8.59214,3.27805 -15.9423,8.36632 -22.1609,15.0365 -6.21736,6.78436 -9.27082,14.472 -9.27082,23.0654 0,13.0017 4.97536,23.0654 14.9249,29.9614 9.9495,7.01018 28.7182,13.3417 56.3048,19.1086 18.0912,3.73091 35.5025,7.34891 52.1223,10.854 16.7339,3.618 34.598,8.47923 53.8184,14.5849 37.7632,12.4372 65.6898,29.2827 83.6669,50.5391 17.9771,21.2564 27.0233,48.9571 27.0233,82.9882zm353.775 155.011l-288.878 0 0 -87.3978 80.8405 0 0 -318.388 -80.8405 0 0 -87.3978 288.878 0 0 87.3978 -80.8405 0 0 318.388 80.8405 0 0 87.3978zm510.707 -337.495c0,22.048 -3.84382,43.643 -11.5327,64.6724 -7.80055,21.1435 -18.7687,38.8947 -33.1278,53.2538 -19.672,19.3332 -41.607,34.0323 -65.8027,43.9818 -24.1957,9.9495 -54.27,14.9236 -90.2242,14.9236l-79.1444 0 0 160.663 -127.197 0 0 -493.183 209.281 0c31.4317,0 57.7751,2.7135 79.3702,8.02759 21.4822,5.427 40.5908,13.5675 57.0976,24.4215 19.899,13.003 35.0497,29.6227 45.565,49.9745 10.514,20.3506 15.7152,44.7734 15.7152,73.2645zm-131.492 2.94055c0,-13.9075 -3.73091,-25.8918 -11.194,-35.9542 -7.57473,-10.0636 -16.281,-17.0726 -26.2305,-21.0305 -13.2288,-5.31409 -26.1176,-8.25341 -38.7806,-8.81918 -12.5501,-0.451636 -29.284,-0.790364 -50.3133,-0.790364l-21.8209 0 0 147.773 36.4058 0c21.5951,0 39.4593,-1.35736 53.4796,-3.95673 14.0191,-2.7135 25.7776,-8.02759 35.2755,-15.9423 8.1405,-7.12309 14.1333,-15.4894 17.7513,-25.326 3.618,-9.83659 5.427,-21.8221 5.427,-35.9542z"/>
  <rect class="fil2" x="459.86" y="1140.84" width="1785.55" height="167.873"/>
  <rect class="fil2" x="459.86" y="1514.91" width="1785.55" height="167.873"/>
  <rect class="fil2" x="459.86" y="1888.98" width="1785.55" height="167.873"/>
  <rect class="fil2" x="1856.25" y="627.043" width="389.16" height="119.545"/>
 </g>
</svg>
