<?xml version="1.0" encoding="UTF-8"?>
<!DOCTYPE svg PUBLIC "-//W3C//DTD SVG 1.1//EN" "http://www.w3.org/Graphics/SVG/1.1/DTD/svg11.dtd">
<svg xmlns="http://www.w3.org/2000/svg" xml:space="preserve" width="2700px" height="3600px" style="shape-rendering:geometricPrecision; text-rendering:geometricPrecision; image-rendering:optimizeQuality; fill-rule:evenodd; clip-rule:evenodd"
viewBox="0 0 2700 3645"
 xmlns:xlink="http://www.w3.org/1999/xlink">
 <defs>
  <style type="text/css">
   <![CDATA[
    .str0 {stroke:#00923F;stroke-width:155.864}
    .fil1 {fill:white}
    .fil2 {fill:white;fill-rule:nonzero}
    .fil0 {fill:url(#id0)}
   ]]>
  </style>
  <linearGradient id="id0" gradientUnits="userSpaceOnUse" x1="256.005" y1="43.3792" x2="2449.27" y2="2590.99">
   <stop offset="0" style="stop-color:#84C225"/>
   <stop offset="1" style="stop-color:#449284"/>
  </linearGradient>
 </defs>
 <g id="Layer_x0020_1">
  <metadata id="CorelCorpID_0Corel-Layer"/>
  <rect class="fil0 str0" x="125.366" y="89.9142" width="2454.54" height="2454.55" rx="165.8" ry="165.8"/>
  <circle class="fil1" cx="1352.64" cy="1317.19" r="368.182"/>
  <g id="_183868768">
   <path id="_183867760" class="fil2" d="M1779.87 889.956l0.00122727 0.00122727c109.226,109.225 176.795,260.274 176.795,427.23 0,166.956 -67.5687,318.005 -176.795,427.23l-73.467 -73.467c90.6685,-90.6685 146.758,-215.759 146.758,-353.763 0,-138.003 -56.0888,-263.094 -146.758,-353.763l-0.00122727 -0.00122727 73.467 -73.467zm-854.458 854.46c-109.226,-109.225 -176.795,-260.274 -176.795,-427.23 0,-166.956 67.5687,-318.005 176.795,-427.23l73.467 73.467c-90.6697,90.6685 -146.759,215.759 -146.759,353.763 0,138.003 56.09,263.094 146.759,353.763l-73.467 73.467z"/>
   <path id="_183869224" class="fil2" d="M1953.42 716.401l0.00122727 0.00122727c153.647,153.648 248.695,366.059 248.695,600.784 0,234.726 -95.0474,447.136 -248.695,600.784l-73.467 -73.467c135.09,-135.091 218.658,-321.545 218.658,-527.317 0,-205.771 -83.5687,-392.227 -218.658,-527.317l-0.00122727 -0.00122727 73.467 -73.467zm-1201.57 1201.57c-153.647,-153.648 -248.695,-366.059 -248.695,-600.784 0,-234.726 95.0474,-447.136 248.695,-600.784l73.467 73.467c-135.09,135.091 -218.658,321.547 -218.658,527.317 0,205.772 83.5687,392.227 218.658,527.317l-73.467 73.467z"/>
   <path id="_183868384" class="fil2" d="M2126.97 542.847l0.00122727 0.00122727c198.192,198.193 320.799,471.985 320.799,774.337 -0.00122727,302.36 -122.606,576.146 -320.794,774.339l-0.00245455 0.00245455 -73.4707 -73.4695c179.389,-179.387 290.357,-427.196 290.357,-700.871 0.00122727,-273.673 -110.97,-521.485 -290.356,-700.871l-0.00122727 -0.00122727 73.467 -73.467zm-1548.67 1548.68c-198.192,-198.192 -320.797,-471.978 -320.799,-774.342 -0.00245455,-302.352 122.603,-576.14 320.798,-774.333l73.4658 73.4658c-179.386,179.389 -290.354,427.198 -290.356,700.873 0.00122727,273.676 110.97,521.483 290.357,700.87l-73.4658 73.4658z"/>
  </g>
 </g>
</svg>
