<?xml version="1.0" encoding="UTF-8"?>
<!DOCTYPE svg PUBLIC "-//W3C//DTD SVG 1.1//EN" "http://www.w3.org/Graphics/SVG/1.1/DTD/svg11.dtd">
<svg xmlns="http://www.w3.org/2000/svg" xml:space="preserve" width="2700px" height="3600px" style="shape-rendering:geometricPrecision; text-rendering:geometricPrecision; image-rendering:optimizeQuality; fill-rule:evenodd; clip-rule:evenodd"
viewBox="0 0 2700 3645"
 xmlns:xlink="http://www.w3.org/1999/xlink">
 <defs>
  <style type="text/css">
   <![CDATA[
    .str0 {stroke:#00923F;stroke-width:155.864}
    .fil1 {fill:#009240;fill-rule:nonzero}
    .fil2 {fill:#383431;fill-rule:nonzero}
    .fil0 {fill:url(#id0)}
   ]]>
  </style>
  <linearGradient id="id0" gradientUnits="userSpaceOnUse" x1="256.005" y1="43.3792" x2="2449.27" y2="2590.99">
   <stop offset="0" style="stop-color:white"/>
   <stop offset="1" style="stop-color:#C2C1C1"/>
  </linearGradient>
 </defs>
 <g id="Layer_x0020_1">
  <metadata id="CorelCorpID_0Corel-Layer"/>
  <rect class="fil0 str0" x="125.366" y="89.9142" width="2454.54" height="2454.55" rx="165.8" ry="165.8"/>
  <g id="_91387440">
   <path id="_91389096" class="fil1" d="M925.407 889.958l0.00122727 -0.00122727c109.225,-109.226 260.274,-176.795 427.23,-176.795 166.956,0 318.005,67.5687 427.23,176.795l-73.467 73.467c-90.6685,-90.6685 -215.759,-146.759 -353.763,-146.759 -138.003,0 -263.094,56.0888 -353.763,146.759l-0.00122727 0.00122727 -73.467 -73.467zm854.46 854.458c-109.225,109.226 -260.274,176.795 -427.23,176.795 -166.956,0 -318.005,-67.5687 -427.23,-176.795l73.467 -73.467c90.6685,90.6697 215.759,146.758 353.763,146.758 138.003,0 263.094,-56.09 353.763,-146.758l73.467 73.467z"/>
   <path id="_91389024" class="fil1" d="M751.852 716.403l0.00122727 -0.00122727c153.648,-153.647 366.059,-248.695 600.784,-248.695 234.726,0 447.136,95.0474 600.784,248.695l-73.467 73.467c-135.091,-135.09 -321.545,-218.658 -527.317,-218.658 -205.771,0 -392.227,83.5687 -527.317,218.658l-0.00122727 0.00122727 -73.467 -73.467zm1201.57 1201.57c-153.648,153.647 -366.059,248.695 -600.784,248.695 -234.726,0 -447.136,-95.0474 -600.784,-248.695l73.467 -73.467c135.091,135.09 321.547,218.658 527.317,218.658 205.772,0 392.227,-83.5687 527.317,-218.658l73.467 73.467z"/>
   <path id="_91388952" class="fil1" d="M578.298 542.85l0.00122727 -0.00122727c198.194,-198.192 471.985,-320.799 774.337,-320.799 302.36,0.00122727 576.146,122.606 774.339,320.794l0.00245455 0.00245455 -73.4695 73.4707c-179.387,-179.389 -427.196,-290.357 -700.871,-290.357 -273.673,-0.00122727 -521.485,110.97 -700.871,290.356l-0.00122727 0.00122727 -73.467 -73.467zm1548.68 1548.67c-198.192,198.192 -471.978,320.797 -774.342,320.799 -302.352,0.00245455 -576.139,-122.603 -774.333,-320.798l73.4658 -73.4658c179.389,179.386 427.198,290.354 700.873,290.356 273.676,-0.00122727 521.483,-110.97 700.87,-290.357l73.4658 73.4658z"/>
  </g>
  <path class="fil2" d="M1467.7 1726.7l-156.285 0 0 -589.246c-57.1578,53.5508 -124.382,93.0481 -201.858,118.494l0 -141.852c40.6375,-13.2926 85.0721,-38.5486 132.926,-75.7681 47.8538,-37.4097 80.7055,-80.8957 98.3659,-130.648l126.851 0 0 819.019z"/>
 </g>
</svg>
