<?xml version="1.0" encoding="UTF-8"?>
<!DOCTYPE svg PUBLIC "-//W3C//DTD SVG 1.1//EN" "http://www.w3.org/Graphics/SVG/1.1/DTD/svg11.dtd">
<svg xmlns="http://www.w3.org/2000/svg" xml:space="preserve" width="2700px" height="3600px" style="shape-rendering:geometricPrecision; text-rendering:geometricPrecision; image-rendering:optimizeQuality; fill-rule:evenodd; clip-rule:evenodd"
viewBox="0 0 2700 3645"
 xmlns:xlink="http://www.w3.org/1999/xlink">
 <defs>
  <style type="text/css">
   <![CDATA[
    .str0 {stroke:#005CA1;stroke-width:155.864}
    .fil1 {fill:#005CA1;fill-rule:nonzero}
    .fil0 {fill:url(#id0)}
   ]]>
  </style>
  <linearGradient id="id0" gradientUnits="userSpaceOnUse" x1="256.005" y1="43.3792" x2="2449.27" y2="2590.99">
   <stop offset="0" style="stop-color:white"/>
   <stop offset="1" style="stop-color:#C2C1C1"/>
  </linearGradient>
 </defs>
 <g id="Layer_x0020_1">
  <metadata id="CorelCorpID_0Corel-Layer"/>
  <rect class="fil0 str0" x="125.366" y="89.9142" width="2454.54" height="2454.55" rx="165.8" ry="165.8"/>
  <path class="fil1" d="M646.124 1765.59l60.6359 -9.57395 32.4454 95.2094c24.9995,21.8074 50.5293,32.4454 76.5929,32.4454 52.1247,0 106.378,-26.0636 163.823,-77.6569 56.9123,-52.1247 159.035,-196.268 306.9,-433.491 -30.3173,-225.522 -64.8908,-388.281 -103.718,-488.277 -38.8285,-100.527 -88.2937,-150.525 -147.334,-150.525 -32.9768,0 -69.1458,12.7661 -107.442,38.8285 -38.297,26.0624 -79.2524,64.8908 -121.803,117.016l-62.2313 -31.3814c65.4222,-88.2937 130.313,-179.78 194.671,-275.519 33.5095,-16.4896 64.8908,-29.2545 95.2094,-37.233 30.3173,-8.50991 58.5078,-12.7649 85.6342,-12.7649 93.6127,0 163.822,32.9768 211.161,98.9317 47.3384,65.9536 86.1668,225.521 115.953,479.234 124.994,-198.396 215.947,-331.369 272.86,-398.919 57.445,-67.5503 113.825,-116.484 170.206,-146.27 39.3599,-21.8074 80.3152,-32.9768 122.867,-32.9768 31.3814,0 61.1673,9.57395 90.4205,28.1905l-42.0194 271.264 -48.4012 12.2335c-14.3615,-49.9979 -47.3384,-74.9962 -98.4003,-74.9962 -54.7855,0 -111.165,24.4669 -168.61,73.4007 -57.9751,48.9338 -149.461,169.673 -275.519,363.281 51.0619,305.306 92.5486,494.658 124.994,568.06 31.914,72.8681 74.4648,109.57 127.655,109.57 22.8702,0 47.8698,-7.44709 75.5276,-21.8086 27.659,-14.3603 84.5714,-56.3797 170.737,-126.058l37.233 54.2528c-132.973,127.122 -234.032,211.161 -303.709,252.649 -46.807,28.1905 -92.0172,42.0194 -135.633,42.0194 -38.2958,0 -74.4648,-18.0839 -108.506,-54.2528 -33.5082,-36.7004 -64.3582,-110.101 -92.5486,-220.203 -4.25495,-16.4884 -23.9355,-127.654 -59.0404,-332.964 -126.058,203.182 -218.607,343.602 -278.179,420.726 -59.5718,76.5929 -114.889,129.25 -165.951,156.908 -33.5082,20.212 -74.4648,29.7859 -123.399,29.7859 -43.6148,0 -89.8891,-14.893 -138.292,-45.2103 21.8074,-84.0387 36.7004,-175.525 45.2103,-273.925z"/>
 </g>
</svg>
