<?xml version="1.0" encoding="UTF-8"?>
<!DOCTYPE svg PUBLIC "-//W3C//DTD SVG 1.1//EN" "http://www.w3.org/Graphics/SVG/1.1/DTD/svg11.dtd">
<svg xmlns="http://www.w3.org/2000/svg" xml:space="preserve" width="2700px" height="3600px" style="shape-rendering:geometricPrecision; text-rendering:geometricPrecision; image-rendering:optimizeQuality; fill-rule:evenodd; clip-rule:evenodd"
viewBox="0 0 2700 3645"
 xmlns:xlink="http://www.w3.org/1999/xlink">
 <defs>
  <style type="text/css">
   <![CDATA[
    .str0 {stroke:#005CA1;stroke-width:155.864}
    .fil1 {fill:white;fill-rule:nonzero}
    .fil0 {fill:url(#id0)}
   ]]>
  </style>
  <linearGradient id="id0" gradientUnits="userSpaceOnUse" x1="256.005" y1="43.3792" x2="2449.27" y2="2590.99">
   <stop offset="0" style="stop-color:#0093DD"/>
   <stop offset="1" style="stop-color:#667AB3"/>
  </linearGradient>
 </defs>
 <g id="Layer_x0020_1">
  <metadata id="CorelCorpID_0Corel-Layer"/>
  <rect class="fil0 str0" x="125.366" y="89.9142" width="2454.54" height="2454.55" rx="165.8" ry="165.8"/>
  <path class="fil1" d="M553.25 1847.97l68.6733 -10.8442 36.747 107.832c28.3132,24.6976 57.2277,36.7458 86.7461,36.7458 59.0355,0 120.48,-29.5184 185.54,-87.9513 64.4576,-59.0343 180.118,-222.287 347.586,-490.958 -34.3366,-255.42 -73.4928,-439.755 -117.467,-553.007 -43.9756,-113.854 -99.9994,-170.479 -166.866,-170.479 -37.3484,0 -78.3123,14.4585 -121.685,43.9756 -43.373,29.5171 -89.7578,73.4928 -137.95,132.528l-70.481 -35.5418c74.0954,-99.9982 147.588,-203.613 220.478,-312.044 37.9522,-18.6754 73.494,-33.1327 107.832,-42.1691 34.3354,-9.63777 66.2641,-14.4573 96.9865,-14.4573 106.023,0 185.54,37.3484 239.154,112.048 53.6134,74.6967 97.5903,255.418 131.324,542.765 141.565,-224.698 244.575,-375.298 309.032,-451.803 65.0602,-76.5057 128.914,-131.926 192.769,-165.661 44.5782,-24.6976 90.963,-37.3484 139.156,-37.3484 35.5418,0 69.2759,10.843 102.407,31.9275l-47.59 307.226 -54.8174 13.8547c-16.265,-56.6264 -53.6134,-84.9383 -111.445,-84.9383 -62.0485,0 -125.902,27.7106 -190.962,83.1318 -65.6603,55.4212 -169.274,192.166 -312.044,411.441 57.8315,345.78 104.818,560.234 141.565,643.367 36.1444,82.528 84.3357,124.094 144.578,124.094 25.9016,0 54.216,-8.43382 85.5397,-24.6989 31.3261,-16.2638 95.7825,-63.8538 193.372,-142.77l42.1691 61.4446c-150.601,143.975 -265.058,239.155 -343.973,286.142 -53.012,31.9275 -104.215,47.59 -153.613,47.59 -43.373,0 -84.337,-20.4807 -122.89,-61.4446 -37.951,-41.5665 -72.8902,-124.697 -104.818,-249.395 -4.8195,-18.6742 -27.1092,-144.576 -66.8667,-377.105 -142.77,230.119 -247.588,389.153 -315.057,476.502 -67.4693,86.7461 -130.119,146.384 -187.951,177.709 -37.9497,22.8911 -84.3357,33.734 -139.757,33.734 -49.3965,0 -101.806,-16.8676 -156.625,-51.2043 24.6989,-95.1787 41.5653,-198.792 51.2043,-310.237z"/>
 </g>
</svg>
