<?xml version="1.0" encoding="UTF-8"?>
<!DOCTYPE svg PUBLIC "-//W3C//DTD SVG 1.1//EN" "http://www.w3.org/Graphics/SVG/1.1/DTD/svg11.dtd">
<svg xmlns="http://www.w3.org/2000/svg" xml:space="preserve" width="2700px" height="3600px" style="shape-rendering:geometricPrecision; text-rendering:geometricPrecision; image-rendering:optimizeQuality; fill-rule:evenodd; clip-rule:evenodd"
viewBox="0 0 2700 3645"
 xmlns:xlink="http://www.w3.org/1999/xlink">
 <defs>
  <style type="text/css">
   <![CDATA[
    .str0 {stroke:#005CA1;stroke-width:155.864}
    .fil1 {fill:#005CA1;fill-rule:nonzero}
    .fil0 {fill:url(#id0)}
   ]]>
  </style>
  <linearGradient id="id0" gradientUnits="userSpaceOnUse" x1="256.005" y1="43.3792" x2="2449.27" y2="2590.99">
   <stop offset="0" style="stop-color:white"/>
   <stop offset="1" style="stop-color:#C2C1C1"/>
  </linearGradient>
 </defs>
 <g id="Layer_x0020_1">
  <metadata id="CorelCorpID_0Corel-Layer"/>
  <rect class="fil0 str0" x="125.366" y="89.9142" width="2454.54" height="2454.55" rx="165.8" ry="165.8"/>
  <path class="fil1" d="M442.28 1427.79l0 -221.217c44.6838,-2.51714 78.6694,-9.44018 101.326,-20.4537 22.6567,-11.0135 42.4808,-29.5797 59.1582,-55.6973 16.3632,-26.1188 27.6922,-58.8453 33.9856,-98.1794 5.03427,-29.5797 7.23723,-80.8724 7.23723,-153.877 0,-119.263 5.66386,-202.337 16.6774,-249.539 11.0148,-46.8867 31.1531,-84.6475 60.1032,-113.283 28.636,-28.6347 70.8026,-51.2914 126.186,-67.6546 37.4465,-11.329 96.606,-16.6786 176.848,-16.6786l49.0897 0 0 220.273c-68.2842,0 -112.024,3.77632 -131.534,11.6431 -19.1958,7.55264 -33.6702,19.1958 -42.7962,34.9294 -9.126,15.7336 -13.8461,42.4808 -13.8461,80.557 0,38.7057 -2.83132,112.34 -8.181,220.589 -3.14673,60.7316 -11.0135,110.137 -24.23,147.897 -12.9023,37.7607 -29.2655,68.9138 -49.0897,93.4593 -20.1395,24.5442 -50.663,50.0335 -91.8859,76.4652 36.1886,21.0833 66.0825,45.3134 89.0534,73.3197 22.9721,28.0064 40.5933,61.992 52.866,101.956 12.2727,39.9637 20.4537,93.458 24.23,160.484 4.0905,101.956 6.29345,167.093 6.29345,195.414 0,40.5933 5.0355,68.915 14.7899,84.6487 9.75559,16.0478 24.8596,28.3205 44.6838,36.5015 20.1395,8.18223 63.25,12.5881 129.647,12.5881l0 221.217 -49.0897 0c-82.7599,0 -146.324,-6.60886 -190.694,-19.8254 -44.3696,-13.2165 -81.5007,-35.2436 -112.024,-66.0813 -30.5235,-30.5235 -50.9772,-68.5996 -61.3624,-113.913 -10.384,-44.9992 -15.7336,-116.116 -15.7336,-213.35 0,-112.969 -4.72009,-186.603 -14.4745,-220.273 -13.5319,-49.0897 -33.9856,-84.3333 -61.3624,-105.417 -27.3768,-21.3975 -69.5434,-33.356 -125.87,-36.5028zm1876.1 0c-44.998,2.51714 -78.6682,9.126 -101.64,20.1395 -22.6567,11.0135 -42.1666,29.8939 -58.5299,56.0127 -16.0478,26.1176 -27.691,58.844 -34.2986,98.1781 -5.0355,29.2655 -7.55264,80.2428 -7.55264,152.933 0,119.263 -5.34968,202.337 -16.049,249.853 -10.6981,47.2009 -30.5235,85.277 -59.4736,113.913 -28.9501,28.3205 -71.431,50.9772 -127.13,67.6546 -37.7607,11.0148 -96.6048,16.6786 -177.162,16.6786l-48.7755 0 0 -221.217c65.7671,0 108.879,-4.40591 129.017,-12.5881 20.1395,-8.181 35.2436,-20.1383 44.685,-35.872 9.44018,-15.7349 14.4745,-42.482 14.7886,-79.9286 0.315409,-37.4465 2.83255,-108.878 7.86805,-214.61 3.14673,-63.8783 11.3277,-115.171 24.8584,-153.561 13.5319,-38.3903 31.4685,-71.1168 53.8098,-97.864 22.6567,-26.7484 51.2926,-50.0335 86.222,-70.4884 -45.3134,-29.2643 -78.6694,-58.2145 -99.4385,-86.535 -28.9501,-40.5933 -48.4601,-92.2001 -59.1582,-154.822 -6.60886,-43.1104 -11.6431,-137.828 -14.4757,-284.152 -0.629591,-45.943 -5.03427,-76.7819 -12.5869,-92.2001 -7.55264,-15.1053 -21.3975,-27.0626 -41.537,-35.2448 -19.8254,-8.49518 -64.5091,-12.5869 -134.053,-12.5869l0 -220.273 48.7755 0c83.0741,0 146.638,6.29345 191.008,19.1958 44.0554,12.9011 81.1865,34.9294 111.396,66.0825 30.2081,30.8377 50.663,69.228 61.3612,114.227 10.6994,45.3134 16.049,116.43 16.049,213.35 0,112.654 4.72009,185.974 13.8461,220.588 13.5307,49.0897 33.9844,84.3333 61.6766,105.417 27.691,21.0833 69.8576,33.356 126.499,36.5028l0 221.217z"/>
 </g>
</svg>
