<?xml version="1.0" encoding="UTF-8"?>
<!DOCTYPE svg PUBLIC "-//W3C//DTD SVG 1.1//EN" "http://www.w3.org/Graphics/SVG/1.1/DTD/svg11.dtd">
<svg xmlns="http://www.w3.org/2000/svg" xml:space="preserve" width="2700px" height="3600px" style="shape-rendering:geometricPrecision; text-rendering:geometricPrecision; image-rendering:optimizeQuality; fill-rule:evenodd; clip-rule:evenodd"
viewBox="0 0 2700 3645"
 xmlns:xlink="http://www.w3.org/1999/xlink">
 <defs>
  <style type="text/css">
   <![CDATA[
    .str1 {stroke:#00923F;stroke-width:103.908}
    .str0 {stroke:#00923F;stroke-width:155.864}
    .fil1 {fill:none}
    .fil3 {fill:#00923F}
    .fil2 {fill:#009240}
    .fil0 {fill:url(#id0)}
   ]]>
  </style>
  <linearGradient id="id0" gradientUnits="userSpaceOnUse" x1="256.005" y1="43.3792" x2="2449.27" y2="2590.99">
   <stop offset="0" style="stop-color:white"/>
   <stop offset="1" style="stop-color:#C2C1C1"/>
  </linearGradient>
 </defs>
 <g id="Layer_x0020_1">
  <metadata id="CorelCorpID_0Corel-Layer"/>
  <rect class="fil0 str0" x="125.366" y="89.9142" width="2454.54" height="2454.55" rx="165.8" ry="165.8"/>
  <g id="_91032232">
   <polygon id="_91032376" class="fil1 str1" points="1352.64,1317.19 1069.3,868.52 785.963,419.852 1352.64,419.852 1919.31,419.852 1635.97,868.52 "/>
   <polygon id="_91032496" class="fil1 str1" points="1352.64,1317.19 1635.97,1765.85 1919.31,2214.52 1352.64,2214.52 785.963,2214.52 1069.3,1765.85 "/>
  </g>
  <polygon class="fil2" points="1075.05,1992.24 1631.9,1992.24 1693.36,2098.74 1013.59,2098.74 "/>
  <polygon class="fil2" points="1186.2,1806.84 1508.79,1806.84 1563.43,1913.34 1131.57,1913.34 "/>
  <polygon class="fil3" points="1349.79,1060.48 1304.53,994.466 1259.27,928.456 1349.79,928.456 1440.3,928.456 1395.04,994.466 "/>
  <polygon class="fil2" points="1508.79,853.469 1186.2,853.469 1131.57,746.967 1563.42,746.967 "/>
 </g>
</svg>
