<?xml version="1.0" encoding="UTF-8"?>
<!DOCTYPE svg PUBLIC "-//W3C//DTD SVG 1.1//EN" "http://www.w3.org/Graphics/SVG/1.1/DTD/svg11.dtd">
<svg xmlns="http://www.w3.org/2000/svg" xml:space="preserve" width="2700px" height="3600px" style="shape-rendering:geometricPrecision; text-rendering:geometricPrecision; image-rendering:optimizeQuality; fill-rule:evenodd; clip-rule:evenodd"
viewBox="0 0 2700 3645"
 xmlns:xlink="http://www.w3.org/1999/xlink">
 <defs>
  <style type="text/css">
   <![CDATA[
    .str0 {stroke:#00923F;stroke-width:155.864}
    .fil1 {fill:#009240;fill-rule:nonzero}
    .fil2 {fill:#383431;fill-rule:nonzero}
    .fil0 {fill:url(#id0)}
   ]]>
  </style>
  <linearGradient id="id0" gradientUnits="userSpaceOnUse" x1="256.005" y1="43.3792" x2="2449.27" y2="2590.99">
   <stop offset="0" style="stop-color:white"/>
   <stop offset="1" style="stop-color:#C2C1C1"/>
  </linearGradient>
 </defs>
 <g id="Layer_x0020_1">
  <metadata id="CorelCorpID_0Corel-Layer"/>
  <rect class="fil0 str0" x="125.366" y="89.9142" width="2454.54" height="2454.55" rx="165.8" ry="165.8"/>
  <g id="_89755120">
   <path id="_89755216" class="fil1" d="M925.407 889.958l0.00122727 -0.00122727c109.225,-109.226 260.274,-176.795 427.23,-176.795 166.956,0 318.005,67.5687 427.23,176.795l-73.467 73.467c-90.6685,-90.6685 -215.759,-146.759 -353.763,-146.759 -138.003,0 -263.094,56.0888 -353.763,146.759l-0.00122727 0.00122727 -73.467 -73.467zm854.46 854.458c-109.225,109.226 -260.274,176.795 -427.23,176.795 -166.956,0 -318.005,-67.5687 -427.23,-176.795l73.467 -73.467c90.6685,90.6697 215.759,146.758 353.763,146.758 138.003,0 263.094,-56.09 353.763,-146.758l73.467 73.467z"/>
   <path id="_89755240" class="fil1" d="M751.852 716.403l0.00122727 -0.00122727c153.648,-153.647 366.059,-248.695 600.784,-248.695 234.726,0 447.136,95.0474 600.784,248.695l-73.467 73.467c-135.091,-135.09 -321.545,-218.658 -527.317,-218.658 -205.771,0 -392.227,83.5687 -527.317,218.658l-0.00122727 0.00122727 -73.467 -73.467zm1201.57 1201.57c-153.648,153.647 -366.059,248.695 -600.784,248.695 -234.726,0 -447.136,-95.0474 -600.784,-248.695l73.467 -73.467c135.091,135.09 321.547,218.658 527.317,218.658 205.772,0 392.227,-83.5687 527.317,-218.658l73.467 73.467z"/>
   <path id="_90345104" class="fil1" d="M578.298 542.85l0.00122727 -0.00122727c198.194,-198.192 471.985,-320.799 774.337,-320.799 302.36,0.00122727 576.146,122.606 774.339,320.794l0.00245455 0.00245455 -73.4695 73.4707c-179.387,-179.389 -427.196,-290.357 -700.871,-290.357 -273.673,-0.00122727 -521.485,110.97 -700.871,290.356l-0.00122727 0.00122727 -73.467 -73.467zm1548.68 1548.67c-198.192,198.192 -471.978,320.797 -774.342,320.799 -302.352,0.00245455 -576.139,-122.603 -774.333,-320.798l73.4658 -73.4658c179.389,179.386 427.198,290.354 700.873,290.356 273.676,-0.00122727 521.483,-110.97 700.87,-290.357l73.4658 73.4658z"/>
  </g>
  <path class="fil2" d="M947.41 1658.7l-132.579 0 0 -499.868c-48.4883,45.4275 -105.515,78.9345 -171.24,100.521l0 -120.335c34.4729,-11.2774 72.1685,-32.7019 112.764,-64.276 40.5945,-31.7348 68.4634,-68.6254 83.4447,-110.831l107.61 0 0 694.79zm646.141 -123.235l0 123.235 -464.912 0c5.15455,-46.5554 20.1359,-90.6942 45.4275,-132.418 25.1309,-41.7224 74.9078,-96.9766 149.011,-165.925 59.9265,-55.577 96.4943,-93.4335 110.025,-113.248 18.2041,-27.3854 27.3866,-54.4492 27.3866,-81.1902 0,-29.4791 -7.89382,-52.1935 -23.8422,-68.1419 -15.9484,-15.9484 -37.8565,-23.841 -65.8861,-23.841 -27.7081,0 -49.6162,8.37614 -66.0481,24.9689 -16.27,16.7535 -25.7752,44.4616 -28.3525,83.1232l-132.095 -13.2091c7.89382,-72.9749 32.5411,-125.33 74.1027,-157.226 41.5616,-31.7348 93.4335,-47.6832 155.775,-47.6832 68.3039,0 121.947,18.5257 160.931,55.2543 38.9843,36.8906 58.4771,82.6409 58.4771,137.412 0,31.0905 -5.63932,60.7316 -16.7535,88.9233 -11.1154,28.1905 -28.836,57.6708 -52.9998,88.4397 -16.1092,20.4586 -45.106,49.9377 -86.8283,88.2777 -41.8844,38.34 -68.4646,63.9532 -79.58,76.5192 -11.1154,12.5648 -20.2979,24.8081 -27.2246,36.7286l263.386 0zm85.0561 -60.41l128.229 -15.4649c4.18868,32.7019 15.1421,57.672 33.1842,74.9078 17.8814,17.399 39.6286,26.098 65.0823,26.098 27.3854,0 50.4213,-10.4711 69.1077,-31.2525 18.6865,-20.7802 28.0297,-48.6491 28.0297,-83.9283 0,-33.3462 -8.85968,-59.7657 -26.9018,-79.2573 -17.8814,-19.6535 -39.7894,-29.3195 -65.5646,-29.3195 -16.9143,0 -37.2121,3.22159 -60.8924,9.82677l14.6585 -107.931c35.9235,0.805091 63.3101,-6.92673 82.1573,-23.3587 18.8485,-16.5927 28.3525,-38.5008 28.3525,-65.8861 0,-23.3587 -6.92673,-41.8844 -20.7814,-55.7378 -13.8535,-13.8547 -32.3791,-20.7814 -55.2543,-20.7814 -22.7144,0 -42.0451,7.89382 -57.9935,23.6802 -16.1092,15.6269 -25.9347,38.6628 -29.3183,68.7862l-122.268 -20.6194c8.53691,-41.8844 21.2637,-75.3914 38.5008,-100.36 17.075,-24.9689 41.078,-44.6224 71.6862,-58.9594 30.7677,-14.337 65.081,-21.5865 103.098,-21.5865 65.2418,0 117.437,20.7802 156.742,62.343 32.3804,33.9893 48.6503,72.3293 48.6503,115.181 0,60.7316 -33.1855,109.22 -99.5551,145.304 39.6286,8.53814 71.2027,27.5474 95.0449,57.1885 23.6802,29.4791 35.6007,65.2418 35.6007,107.126 0,60.7316 -22.2308,112.442 -66.5305,155.292 -44.3009,42.6895 -99.5551,64.1152 -165.603,64.1152 -62.6645,0 -114.536,-18.0421 -155.775,-53.9656 -41.24,-36.0843 -65.0823,-83.1232 -71.6862,-141.439z"/>
 </g>
</svg>
