<?xml version="1.0" encoding="UTF-8"?>
<!DOCTYPE svg PUBLIC "-//W3C//DTD SVG 1.1//EN" "http://www.w3.org/Graphics/SVG/1.1/DTD/svg11.dtd">
<svg xmlns="http://www.w3.org/2000/svg" xml:space="preserve" width="2700px" height="3600px" style="shape-rendering:geometricPrecision; text-rendering:geometricPrecision; image-rendering:optimizeQuality; fill-rule:evenodd; clip-rule:evenodd"
viewBox="0 0 2700 3645"
 xmlns:xlink="http://www.w3.org/1999/xlink">
 <defs>
  <style type="text/css">
   <![CDATA[
    .str0 {stroke:#DA251D;stroke-width:155.864}
    .fil2 {fill:none}
    .fil1 {fill:#383431;fill-rule:nonzero}
    .fil0 {fill:url(#id0)}
   ]]>
  </style>
  <linearGradient id="id0" gradientUnits="userSpaceOnUse" x1="517.059" y1="375.472" x2="2188.22" y2="2258.9">
   <stop offset="0" style="stop-color:white"/>
   <stop offset="1" style="stop-color:#C2C1C1"/>
  </linearGradient>
 </defs>
 <g id="Layer_x0020_1">
  <metadata id="CorelCorpID_0Corel-Layer"/>
  <rect class="fil0 str0" x="125.366" y="89.9142" width="2454.54" height="2454.55" rx="165.8" ry="165.8"/>
  <path class="fil1" d="M689.44 1676.28c-103.64,0 -186.045,-31.3777 -247.055,-93.9735 -61.0114,-62.7541 -91.438,-150.864 -91.438,-264.487 0,-109.502 30.5849,-196.819 91.7546,-261.95 61.1697,-65.1314 143.574,-97.7768 247.213,-97.7768 27.5744,0 52.2953,1.58564 74.3224,4.59614 22.0271,3.16882 43.1043,7.44832 63.2303,12.9944 15.6882,4.75445 32.9609,11.0933 51.5025,19.0166 18.5404,8.08159 33.5954,15.055 45.0053,20.9176l0 164.809 -17.5905 0c-8.39823,-7.44832 -19.0166,-16.3227 -31.6931,-26.6232 -12.6777,-10.4588 -27.0994,-20.601 -43.1043,-30.4265 -16.1644,-9.98264 -33.9132,-18.3821 -53.2465,-25.3542 -19.3332,-6.97336 -39.4593,-10.46 -60.5352,-10.46 -25.0388,0 -48.017,3.96286 -68.9347,11.8861 -20.9176,7.92327 -40.8854,21.5521 -59.7436,41.0437 -17.2726,17.5905 -31.5348,41.5186 -42.4698,71.4702 -10.9338,30.1087 -16.481,65.448 -16.481,106.333 0,43.103 5.70559,79.2352 17.1155,108.552 11.5683,29.1575 26.4637,52.7703 45.1636,70.6774 17.9071,17.431 37.8749,29.9504 60.0603,37.7153 22.1854,7.76495 44.2125,11.5683 66.2408,11.5683 22.8199,0 44.6887,-3.80332 65.448,-11.41 20.7593,-7.60664 38.1915,-16.0049 52.4536,-25.1959 15.5299,-9.66723 29.1588,-19.4915 40.8854,-29.3171 11.7266,-9.98386 22.0271,-18.7 30.5849,-26.4649l15.8465 0 0 162.432c-12.6777,5.86391 -27.4148,12.6777 -44.0542,20.2844 -16.7989,7.44832 -33.9132,13.9455 -51.662,19.1749 -21.5521,6.49718 -41.8353,11.41 -60.8519,14.8966 -18.8583,3.32714 -44.847,5.07109 -77.9674,5.07109zm954.148 -358.461c0,64.4981 -14.1038,122.023 -42.3115,173.05 -28.0493,50.868 -63.704,89.8523 -106.808,117.109 -35.8143,23.2949 -74.9569,38.1915 -117.11,44.847 -42.3115,6.6555 -87.3168,9.98386 -135.016,9.98386l-216.312 0 0 -691.247 214.569 0c48.4908,0 94.1306,3.16882 136.442,9.34936 42.4698,6.18055 82.2457,21.0772 119.328,45.0053 45.4815,29.0005 81.4541,68.3014 107.761,117.585 26.3054,49.4431 39.458,107.601 39.458,174.317zm-178.279 -1.26777c0,-45.6386 -7.76495,-84.4646 -23.4532,-116.792 -15.6882,-32.4859 -39.6176,-57.683 -72.263,-75.9068 -23.4532,-13.1527 -48.1741,-20.126 -74.0058,-21.3938 -25.8304,-1.26777 -56.7319,-1.90105 -92.5462,-1.90105l-3.32714 0 0 432.782 3.32714 0c38.9843,0 71.7869,-0.6345 98.5684,-2.06059 26.7815,-1.42609 52.2953,-9.666 76.383,-24.8793 28.5243,-17.9071 50.2347,-42.7876 64.973,-74.3224 14.8954,-31.536 22.3437,-70.0441 22.3437,-115.526zm920.078 346.258l-211.716 0 -192.382 -253.552 -62.4375 0 0 253.552 -172.733 0 0 -691.247 278.115 0c38.3498,0 71.7869,2.37723 100.153,7.13045 28.5255,4.91277 54.8309,14.8966 78.9185,29.9516 24.8805,15.8465 44.5304,35.8143 58.9508,60.2186 14.58,24.246 21.8688,55.1475 21.8688,92.5462 0,52.9298 -11.8849,95.8745 -35.656,128.837 -23.9281,32.9621 -55.7808,59.1091 -95.715,78.6007l232.633 293.963zm-279.541 -479.531c0,-17.2726 -3.32836,-32.3276 -9.98386,-44.847 -6.6555,-12.5194 -17.7488,-22.1854 -33.1204,-28.9992 -10.9338,-4.59614 -22.9782,-7.44832 -36.2892,-8.71609 -13.311,-1.26777 -29.792,-1.90227 -49.6015,-1.90227l-57.9997 0 0 186.045 49.6015 0c24.246,0 44.6887,-1.42609 61.4864,-4.43782 16.956,-2.85218 31.2181,-9.19105 42.9447,-18.6987 11.0933,-8.71609 19.4915,-19.0166 24.8805,-31.2194 5.38773,-12.0432 8.08159,-27.7315 8.08159,-47.2242z"/>
  <line class="fil2 str0" x1="173.485" y1="141.941" x2="2524.36" y2= "2500.32" />
 </g>
</svg>
