<?xml version="1.0" encoding="UTF-8"?>
<!DOCTYPE svg PUBLIC "-//W3C//DTD SVG 1.1//EN" "http://www.w3.org/Graphics/SVG/1.1/DTD/svg11.dtd">
<svg xmlns="http://www.w3.org/2000/svg" xml:space="preserve" width="2700px" height="3600px" style="shape-rendering:geometricPrecision; text-rendering:geometricPrecision; image-rendering:optimizeQuality; fill-rule:evenodd; clip-rule:evenodd"
viewBox="0 0 2700 3645"
 xmlns:xlink="http://www.w3.org/1999/xlink">
 <defs>
  <style type="text/css">
   <![CDATA[
    .str0 {stroke:#DA251D;stroke-width:155.864}
    .fil1 {fill:white}
    .fil0 {fill:url(#id0)}
   ]]>
  </style>
  <linearGradient id="id0" gradientUnits="userSpaceOnUse" x1="256.005" y1="43.3792" x2="2449.27" y2="2590.99">
   <stop offset="0" style="stop-color:#E77817"/>
   <stop offset="1" style="stop-color:#DA251D"/>
  </linearGradient>
 </defs>
 <g id="Layer_x0020_1">
  <metadata id="CorelCorpID_0Corel-Layer"/>
  <rect class="fil0 str0" x="125.366" y="89.9142" width="2454.54" height="2454.55" rx="165.8" ry="165.8"/>
  <g id="_90146008">
   <g>
    <rect id="_67626984" class="fil1" transform="matrix(0.796568 -0.6684 0.6684 0.796568 995.587 1311.69)" width="305.223" height="1068.28"/>
    <path id="_67627320" class="fil1" d="M562.473 548.646c94.3859,-79.2008 215.801,-105.046 327.585,-80.7766l-464.02 389.358c-4.48936,-114.301 42.0476,-229.382 136.435,-308.582zm414.855 -50.4262c35.1884,17.2456 68.1554,40.1208 97.4553,68.5334l-583.439 489.564c-22.8935,-33.788 -39.6961,-70.227 -50.5698,-107.875l536.554 -450.223zm148.458 129.316c22.8862,33.7905 39.6974,70.2221 50.5747,107.871l-536.565 450.231c-35.1884,-17.2493 -68.1468,-40.1318 -97.4491,-68.5383l583.439 -489.564zm65.297 199.096c4.49182,114.296 -42.0402,229.378 -136.425,308.577 -94.3846,79.1984 -215.8,105.04 -327.58,80.7705l464.005 -389.347z"/>
   </g>
   <g>
    <rect id="_90146128" class="fil1" transform="matrix(0.796568 0.6684 -0.6684 0.796568 1466.56 1120.29)" width="305.223" height="1068.28"/>
    <path id="_90145504" class="fil1" d="M2142.8 561.254c94.3871,79.1996 140.923,194.282 136.433,308.582l-464.018 -389.358c111.784,-24.2693 233.198,1.57705 327.585,80.7766zm121.698 399.796c-10.8736,37.649 -27.6762,74.0868 -50.5685,107.876l-583.439 -489.564c29.2999,-28.4126 62.2669,-51.2877 97.4553,-68.5334l536.553 450.221zm-101.572 168.658c-29.3036,28.4065 -62.262,51.289 -97.4491,68.5383l-536.566 -450.231c10.8773,-37.649 27.6897,-74.0794 50.5759,-107.871l583.439 489.564zm-184.733 98.8789c-111.779,24.2705 -233.194,-1.57091 -327.579,-80.7693 -94.3846,-79.1971 -140.917,-194.281 -136.426,-308.577l464.005 389.346z"/>
   </g>
  </g>
 </g>
</svg>
