<?xml version="1.0" encoding="UTF-8"?>
<!DOCTYPE svg PUBLIC "-//W3C//DTD SVG 1.1//EN" "http://www.w3.org/Graphics/SVG/1.1/DTD/svg11.dtd">
<svg xmlns="http://www.w3.org/2000/svg" xml:space="preserve" width="2700px" height="3600px" style="shape-rendering:geometricPrecision; text-rendering:geometricPrecision; image-rendering:optimizeQuality; fill-rule:evenodd; clip-rule:evenodd"
viewBox="0 0 2700 3645"
 xmlns:xlink="http://www.w3.org/1999/xlink">
 <defs>
  <style type="text/css">
   <![CDATA[
    .str0 {stroke:#005CA1;stroke-width:155.864}
    .fil1 {fill:white}
    .fil2 {fill:#1F1A17;fill-rule:nonzero}
    .fil0 {fill:url(#id0)}
   ]]>
  </style>
  <linearGradient id="id0" gradientUnits="userSpaceOnUse" x1="256.005" y1="43.3792" x2="2449.27" y2="2590.99">
   <stop offset="0" style="stop-color:#75C5F0"/>
   <stop offset="1" style="stop-color:#007CC3"/>
  </linearGradient>
 </defs>
 <g id="Layer_x0020_1">
  <metadata id="CorelCorpID_0Corel-Layer"/>
  <rect class="fil0 str0" x="125.366" y="89.9142" width="2454.54" height="2454.55" rx="165.8" ry="165.8"/>
  <polygon class="fil1" points="205.415,839.004 2501.94,839.004 2501.94,1795.37 205.415,1795.37 "/>
  <path class="fil2" d="M1145.12 1693.49l-165.413 0 -65.7106 -171.022 -300.865 0 -62.03 171.022 -161.208 0 293.154 -752.599 160.683 0 301.39 752.599zm-279.837 -297.711l-103.734 -279.311 -101.632 279.311 205.366 0zm710.544 21.0281l0 -126.864 327.499 0 0 299.813c-31.8919,30.8401 -77.976,57.9997 -138.429,81.4799 -60.4542,23.3059 -121.608,35.046 -183.463,35.046 -78.6768,0 -147.366,-16.4712 -205.892,-49.4137 -58.525,-33.118 -102.507,-80.2538 -131.945,-141.759 -29.4386,-61.5048 -44.1573,-128.266 -44.1573,-200.46 0,-78.3258 16.4712,-148.066 49.2394,-209.045 32.9425,-60.804 80.9546,-107.589 144.386,-140.006 48.1876,-25.0572 108.29,-37.4981 180.133,-37.4981 93.3955,0 166.466,19.6253 218.858,58.7005 52.5678,39.2506 86.3865,93.3955 101.456,162.61l-150.87 28.2125c-10.6895,-36.9728 -30.6646,-66.2359 -59.9277,-87.6138 -29.2631,-21.3779 -65.7106,-32.0662 -109.517,-32.0662 -66.4102,0 -119.153,21.0269 -158.405,63.0806 -39.2506,42.2305 -58.7005,104.611 -58.7005,187.493 0,89.1908 19.8008,156.303 59.5767,200.986 39.6016,44.6825 91.6441,66.9367 155.952,66.9367 31.8919,0 63.7826,-6.30818 95.8488,-18.749 31.8919,-12.4421 59.4025,-27.686 82.3574,-45.3845l0 -95.4978 -174 0zm462.949 276.683l0 -752.599 151.922 0 0 752.599 -151.922 0z"/>
 </g>
</svg>
