<?xml version="1.0" encoding="UTF-8"?>
<!DOCTYPE svg PUBLIC "-//W3C//DTD SVG 1.1//EN" "http://www.w3.org/Graphics/SVG/1.1/DTD/svg11.dtd">
<svg xmlns="http://www.w3.org/2000/svg" xml:space="preserve" width="35px" height="47px" version="1.1" style="shape-rendering:geometricPrecision; text-rendering:geometricPrecision; image-rendering:optimizeQuality; fill-rule:evenodd; clip-rule:evenodd"
viewBox="0 0 35 47"
 xmlns:xlink="http://www.w3.org/1999/xlink">
 <defs>
  <style type="text/css">
   <![CDATA[
    .str0 {stroke:#00558E;stroke-width:2.02045}
    .str1 {stroke:#86755D;stroke-width:1.34562}
    .fil2 {fill:url(#id0)}
    .fil1 {fill:url(#id1)}
    .fil0 {fill:url(#id2)}
   ]]>
  </style>
  <linearGradient id="id0" gradientUnits="userSpaceOnUse" x1="15.5091" y1="25.5249" x2="14.6548" y2="12.5321">
   <stop offset="0" style="stop-opacity:1; stop-color:#E5D76E"/>
   <stop offset="1" style="stop-opacity:1; stop-color:#FCF8E9"/>
  </linearGradient>
  <linearGradient id="id1" gradientUnits="userSpaceOnUse" xlink:href="#id0" x1="20.0933" y1="20.9408" x2="19.2389" y2="7.94799">
  </linearGradient>
  <linearGradient id="id2" gradientUnits="userSpaceOnUse" x1="2.19633" y1="1.90158" x2="33.162" y2="32.7213">
   <stop offset="0" style="stop-opacity:1; stop-color:#FEFEFE"/>
   <stop offset="1" style="stop-opacity:1; stop-color:#D9DADA"/>
  </linearGradient>
 </defs>
 <g id="Layer_x0020_1">
  <metadata id="CorelCorpID_0Corel-Layer"/>
  <path class="fil0 str0" d="M4 1l27 0c2,0 2,1 2,3l0 27c0,1 0,2 -2,2l-27 0c-1,0 -2,-1 -2,-2l0 -27c0,-2 1,-3 2,-3z"/>
  <g id="_1677153369344">
   <path class="fil1 str1" d="M12 6l15 0c1,0 1,1 1,1l0 15c0,1 0,1 -1,1l-15 0c0,0 -1,0 -1,-1l0 -15c0,0 1,-1 1,-1z"/>
   <path class="fil2 str1" d="M8 11l15 0c0,0 1,0 1,1l0 15c0,0 -1,1 -1,1l-15 0c-1,0 -1,-1 -1,-1l0 -15c0,-1 0,-1 1,-1z"/>
  </g>
 </g>
</svg>
