<?xml version="1.0" encoding="UTF-8"?>
<!DOCTYPE svg PUBLIC "-//W3C//DTD SVG 1.1//EN" "http://www.w3.org/Graphics/SVG/1.1/DTD/svg11.dtd">
<svg xmlns="http://www.w3.org/2000/svg" xml:space="preserve" width="35px" height="47px" version="1.1" style="shape-rendering:geometricPrecision; text-rendering:geometricPrecision; image-rendering:optimizeQuality; fill-rule:evenodd; clip-rule:evenodd"
viewBox="0 0 35 47"
 xmlns:xlink="http://www.w3.org/1999/xlink">
 <defs>
  <style type="text/css">
   <![CDATA[
    .str0 {stroke:#00558E;stroke-width:2.02045}
    .str1 {stroke:#86755D;stroke-width:1.34562}
    .str2 {stroke:white;stroke-width:1.34562}
    .fil2 {fill:#00558E}
    .fil1 {fill:url(#id0)}
    .fil0 {fill:url(#id1)}
   ]]>
  </style>
  <linearGradient id="id0" gradientUnits="userSpaceOnUse" x1="17.8704" y1="24.8283" x2="16.7947" y2="8.4694">
   <stop offset="0" style="stop-opacity:1; stop-color:#E5D76E"/>
   <stop offset="1" style="stop-opacity:1; stop-color:#FCF8E9"/>
  </linearGradient>
  <linearGradient id="id1" gradientUnits="userSpaceOnUse" x1="2.19633" y1="1.90158" x2="33.162" y2="32.7213">
   <stop offset="0" style="stop-opacity:1; stop-color:#FEFEFE"/>
   <stop offset="1" style="stop-opacity:1; stop-color:#D9DADA"/>
  </linearGradient>
 </defs>
 <g id="Layer_x0020_1">
  <metadata id="CorelCorpID_0Corel-Layer"/>
  <path class="fil0 str0" d="M4 1l27 0c2,0 2,1 2,3l0 27c0,1 0,2 -2,2l-27 0c-1,0 -2,-1 -2,-2l0 -27c0,-2 1,-3 2,-3z"/>
  <path class="fil1 str1" d="M8 6l19 0c1,0 1,1 1,2l0 18c0,1 0,2 -1,2l-19 0c-1,0 -1,-1 -1,-2l0 -18c0,-1 0,-2 1,-2z"/>
  <polygon class="fil2 str2" points="10,14 15,14 15,19 21,19 21,25 15,25 15,30 10,30 10,25 4,25 4,19 10,19 "/>
 </g>
</svg>
