<?xml version="1.0" encoding="UTF-8"?>
<!DOCTYPE svg PUBLIC "-//W3C//DTD SVG 1.1//EN" "http://www.w3.org/Graphics/SVG/1.1/DTD/svg11.dtd">
<svg xmlns="http://www.w3.org/2000/svg" xml:space="preserve" width="35px" height="47px" version="1.1" style="shape-rendering:geometricPrecision; text-rendering:geometricPrecision; image-rendering:optimizeQuality; fill-rule:evenodd; clip-rule:evenodd"
viewBox="0 0 35 47"
 xmlns:xlink="http://www.w3.org/1999/xlink">
 <defs>
  <style type="text/css">
   <![CDATA[
    .str3 {stroke:#9E2D20;stroke-width:1.01023}
    .str2 {stroke:#2C7331;stroke-width:1.01023}
    .str4 {stroke:#362D70;stroke-width:1.01023}
    .str0 {stroke:#00558E;stroke-width:2.02045}
    .str1 {stroke:#2B2A29;stroke-width:1.34562}
    .fil1 {fill:none}
    .fil2 {fill:#11FF00}
    .fil4 {fill:#668CFF}
    .fil3 {fill:red}
    .fil0 {fill:url(#id0)}
   ]]>
  </style>
  <linearGradient id="id0" gradientUnits="userSpaceOnUse" x1="2.19633" y1="1.90158" x2="33.162" y2="32.7213">
   <stop offset="0" style="stop-opacity:1; stop-color:#FEFEFE"/>
   <stop offset="1" style="stop-opacity:1; stop-color:#D9DADA"/>
  </linearGradient>
 </defs>
 <g id="Layer_x0020_1">
  <metadata id="CorelCorpID_0Corel-Layer"/>
  <path class="fil0 str0" d="M4 1l27 0c2,0 2,1 2,3l0 27c0,1 0,2 -2,2l-27 0c-1,0 -2,-1 -2,-2l0 -27c0,-2 1,-3 2,-3z"/>
  <g id="_1677153375296">
   <line class="fil1 str1" x1="10" y1="24" x2="18" y2= "10" />
   <line class="fil1 str1" x1="10" y1="24" x2="26" y2= "24" />
   <rect class="fil2 str2" x="13" y="5" width="8.50287" height="8.50287"/>
   <g>
    <rect class="fil3 str3" x="21" y="20" width="8.50287" height="8.50287"/>
    <rect class="fil4 str4" x="5" y="20" width="8.50287" height="8.50287"/>
   </g>
  </g>
 </g>
</svg>
