<?xml version="1.0" encoding="UTF-8"?>
<!DOCTYPE svg PUBLIC "-//W3C//DTD SVG 1.1//EN" "http://www.w3.org/Graphics/SVG/1.1/DTD/svg11.dtd">
<svg xmlns="http://www.w3.org/2000/svg" xml:space="preserve" width="35px" height="47px" version="1.1" style="shape-rendering:geometricPrecision; text-rendering:geometricPrecision; image-rendering:optimizeQuality; fill-rule:evenodd; clip-rule:evenodd"
viewBox="0 0 35 47"
 xmlns:xlink="http://www.w3.org/1999/xlink">
 <defs>
  <style type="text/css">
   <![CDATA[
    .str0 {stroke:#006CB5;stroke-width:2.02045}
    .str1 {stroke:white;stroke-width:1.34562}
    .fil1 {fill:#006CB5}
    .fil2 {fill:#00558E}
    .fil0 {fill:url(#id0)}
   ]]>
  </style>
  <linearGradient id="id0" gradientUnits="userSpaceOnUse" x1="2.19633" y1="1.90158" x2="33.162" y2="32.7213">
   <stop offset="0" style="stop-opacity:1; stop-color:#FEFEFE"/>
   <stop offset="1" style="stop-opacity:1; stop-color:#D9DADA"/>
  </linearGradient>
 </defs>
 <g id="Layer_x0020_1">
  <metadata id="CorelCorpID_0Corel-Layer"/>
  <path class="fil0 str0" d="M4 1l27 0c2,0 2,1 2,3l0 27c0,1 0,2 -2,2l-27 0c-1,0 -2,-1 -2,-2l0 -27c0,-2 1,-3 2,-3z"/>
  <path class="fil1" d="M17 5l1 0c1,0 2,1 2,2l0 4 3 -3c1,-1 2,-1 3,0l0 1c1,0 1,2 0,3l-3 3 5 0c1,0 2,1 2,2l0 0c0,2 -1,3 -2,3l-5 0 3 2c1,1 1,3 0,4l0 0c-1,1 -2,1 -3,0l-3 -3 0 4c0,1 -1,2 -2,2l-1 0c-1,0 -2,-1 -2,-2l0 -4 -3 3c-1,1 -2,1 -3,0l0 0c-1,-1 -1,-3 0,-4l3 -2 -4 0c-2,0 -3,-1 -3,-3l0 0c0,-1 1,-2 3,-2l4 0 -3 -3c-1,-1 -1,-3 0,-3l0 -1c1,-1 2,-1 3,0l3 3 0 -4c0,-1 1,-2 2,-2z"/>
  <polygon class="fil2 str1" points="10,14 15,14 15,19 21,19 21,25 15,25 15,30 10,30 10,25 4,25 4,19 10,19 "/>
 </g>
</svg>
