<?xml version="1.0" encoding="UTF-8"?>
<!DOCTYPE svg PUBLIC "-//W3C//DTD SVG 1.1//EN" "http://www.w3.org/Graphics/SVG/1.1/DTD/svg11.dtd">
<svg xmlns="http://www.w3.org/2000/svg" xml:space="preserve" width="20px" height="20px" style="shape-rendering:geometricPrecision; text-rendering:geometricPrecision; image-rendering:optimizeQuality; fill-rule:evenodd; clip-rule:evenodd"
viewBox="0 0 20 20"
 xmlns:xlink="http://www.w3.org/1999/xlink">
 <defs>
  <style type="text/css">
   <![CDATA[
    .fil2 {fill:none}
    .fil1 {fill:#4BB033;fill-rule:nonzero;fill-opacity:0.490196}
    .fil4 {fill:#4CB033;fill-rule:nonzero;fill-opacity:0.490196}
    .fil0 {fill:#4BB033;fill-opacity:0.721569}
    .fil3 {fill:#4CB033;fill-opacity:0.721569}
   ]]>
  </style>
 </defs>
 <g id="Layer_x0020_1">
  <metadata id="CorelCorpID_0Corel-Layer"/>
  <g id="_95528192">
   <g>
    <g>
     <path id="_95528504" class="fil0" d="M7.91067 13.4433c-0.480433,-0.92395 -3.40192,-6.74353 -2.92162,-7.91237 0.18845,-0.344183 2.51858,6.11095 2.86517,6.73105 0.365033,0.634733 1.71663,1.16653 1.59427,1.61077 -0.40075,1.44262 -0.755133,1.06237 -1.53782,-0.42945z"/>
    </g>
    <g>
     <path id="_95528408" class="fil0" d="M7.58475 13.2124c-0.6446,-1.23962 -4.56407,-9.04717 -3.91967,-10.6153 0.717917,-1.30665 4.74975,6.3808 5.36985,7.56432 0.9243,1.77612 1.32925,2.59893 0.661033,3.98292 -0.679233,1.45057 -1.118,0.959733 -2.11122,-0.931933z"/>
    </g>
    <g>
     <path id="_95528312" class="fil1" d="M7.69103 11.9507c-0.950517,-1.83275 -1.57498,-4.1273 -2.40015,-6.13682 -0.0964833,-0.231367 -0.910617,-1.35602 -0.848667,-1.49375l4.58375 6.45697c0.8135,0.90925 1.17525,2.39203 0.5691,3.38393 -0.0586667,0.0951833 -0.365517,0.539817 -0.3645,0.530467 0.0857833,-0.69405 0.533633,-1.16313 -0.121917,-1.3057 -0.576533,-0.114967 -0.918183,-0.483883 -1.41762,-1.4351z"/>
    </g>
   </g>
  </g>
  <line class="fil2" x1="9.67252" y1="14.296" x2="3.61617" y2= "2.69998" />
  <g id="_95527688">
   <g>
    <g>
     <path id="_95528000" class="fil3" d="M9.9608 10.3008c0.654083,-0.934933 5.22282,-7.38393 5.57597,-6.30485 0.0769,0.41715 -4.47335,5.47603 -4.94547,6.18272 -0.427767,0.651733 -1.51713,3.68497 -1.66683,3.43972 -0.583367,-0.966567 0.0251167,-1.86358 1.03633,-3.31758z"/>
    </g>
    <g>
     <path id="_95527904" class="fil3" d="M10.2516 9.5976c0.877533,-1.25432 7.00698,-9.90637 7.48078,-8.45865 0.293267,1.60922 -5.85563,10.3714 -6.70142,11.5863 -1.20787,1.72758 -1.99088,3.02052 -2.37613,1.4271 -0.41995,-1.63173 0.297183,-2.68612 1.59677,-4.55473z"/>
    </g>
    <g>
     <path id="_95527808" class="fil4" d="M10.8363 9.82652c1.42533,-2.0353 2.93747,-3.40068 4.39607,-5.1794 0.146633,-0.180667 1.17488,-1.96062 1.21073,-1.8312l-5.7204 9.89012c-0.73745,1.44637 -1.81383,2.73273 -2.02277,1.22862 -0.0147167,-0.10845 -0.0995667,-0.798567 -0.0757333,-0.786183 0.34275,0.206167 0.318683,1.11173 0.728533,-0.26335 0.37755,-1.28705 0.78165,-2.04933 1.48357,-3.0586z"/>
    </g>
   </g>
  </g>
  <line class="fil2" x1="8.59018" y1="14.1017" x2="17.7061" y2= "1.03345" />
 </g>
</svg>
