<?xml version="1.0" encoding="UTF-8"?>
<!DOCTYPE svg PUBLIC "-//W3C//DTD SVG 1.1//EN" "http://www.w3.org/Graphics/SVG/1.1/DTD/svg11.dtd">
<svg xmlns="http://www.w3.org/2000/svg" xml:space="preserve" width="20px" height="20px" style="shape-rendering:geometricPrecision; text-rendering:geometricPrecision; image-rendering:optimizeQuality; fill-rule:evenodd; clip-rule:evenodd"
viewBox="0 0 20 20"
 xmlns:xlink="http://www.w3.org/1999/xlink">
 <defs>
  <style type="text/css">
   <![CDATA[
    .str0 {stroke:#1F1A17}
    .fil0 {fill:none}
    .fil6 {fill:#484F52;fill-rule:nonzero}
    .fil12 {fill:#5B6265;fill-rule:nonzero}
    .fil1 {fill:#484F52;fill-opacity:0.211765}
    .fil7 {fill:#5B6265;fill-opacity:0.211765}
    .fil3 {fill:#484F52;fill-opacity:0.231373}
    .fil9 {fill:#5B6265;fill-opacity:0.231373}
    .fil2 {fill:#484F52;fill-opacity:0.450980}
    .fil8 {fill:#5B6265;fill-opacity:0.450980}
    .fil4 {fill:#484F52;fill-opacity:0.501961}
    .fil10 {fill:#5B6265;fill-opacity:0.501961}
    .fil5 {fill:#484F52;fill-rule:nonzero;fill-opacity:0.501961}
    .fil11 {fill:#5B6265;fill-rule:nonzero;fill-opacity:0.501961}
   ]]>
  </style>
 </defs>
 <g id="Layer_x0020_1">
  <metadata id="CorelCorpID_0Corel-Layer"/>
  <g id="_233045664">
   <rect id="_97058416" class="fil0 str0" x="3.69697" y="4.38187" width="11.7989" height="11.9583" rx="2.16487" ry="2.16487"/>
   <g>
    <g>
     <g>
      <path id="_97056664" class="fil1" d="M16.4323 2.13838c-3.04107,2.92315 -6.1193,5.88778 -9.14717,8.63373 -1.04343,0.9462 -2.41962,2.20488 -3.41677,3.49237 -0.44515,0.582233 -0.78585,1.27185 -1.02348,1.80887 0.0249167,0.2005 0.0495333,0.40145 0.07445,0.6022 -0.0280167,0.223683 -0.0563333,0.4479 -0.0847667,0.671817 0.0750167,0.0576 0.1499,0.115567 0.225183,0.17315 0.1521,0.0676 0.496567,-0.127067 0.795917,-0.348717 0.937733,-0.697967 1.86783,-1.59827 2.83243,-2.69233 1.78245,-2.02393 3.72865,-4.04948 5.44473,-6.19465 1.19108,-1.49622 2.43953,-2.94603 3.5946,-4.4773 0.525417,-0.699417 1.05757,-1.46963 1.4567,-2.17975 -0.250633,0.17025 -0.50115,0.340217 -0.751833,0.510617z"/>
     </g>
     <g>
      <path id="_97057552" class="fil2" d="M3.17448 15.9453c-0.0470167,-0.230317 0.181483,-0.665617 0.420883,-1.09312 0.295533,-0.52715 0.510367,-0.896617 0.960267,-1.36922 1.3622,-1.41377 3.08902,-2.78493 4.38897,-3.77548 0.68335,-0.518833 1.56247,-1.32507 2.17285,-1.63758 0.520183,-0.236583 -1.29808,2.4225 -1.57015,2.74025 -0.993383,1.153 -2.02783,2.54305 -3.06487,3.54772l-1.88292 1.83927c-0.319483,0.309583 -0.79745,0.83285 -1.05338,0.902867 -0.23325,0.06 -0.477533,-0.00826667 -0.3613,-0.3707 0.0572333,-0.17555 0.10705,-0.377767 0.0584833,-0.456467 -0.0230167,-0.109133 -0.04585,-0.218267 -0.0688333,-0.327533z"/>
     </g>
     <g>
      <path id="_97055920" class="fil2" d="M3.37792 15.8431c-0.0418333,-0.207317 0.1638,-0.5991 0.379083,-0.98405 0.265783,-0.474267 0.459483,-0.8069 0.86415,-1.23197 1.22697,-1.2724 2.77938,-2.50583 3.95022,-3.39803 0.615067,-0.466983 1.40608,-1.19237 1.95548,-1.47367 0.467583,-0.21295 -1.16763,2.1798 -1.41297,2.46587 -0.8945,1.038 -1.82487,2.2879 -2.75832,3.19292 -0.564917,0.544883 -1.13008,1.10913 -1.69472,1.65538 -0.288017,0.278767 -0.717633,0.749383 -0.948367,0.812717 -0.20975,0.0535333 -0.429517,-0.00736667 -0.32505,-0.333683 0.0515,-0.15805 0.0963,-0.3399 0.0527,-0.410667 -0.0207,-0.0984 -0.0415167,-0.1966 -0.0622167,-0.294817z"/>
     </g>
     <g>
      <path id="_233225368" class="fil2" d="M3.0926 16.1987c-0.03795,-0.186433 0.147283,-0.53895 0.341017,-0.885183 0.239183,-0.426833 0.4136,-0.726617 0.777917,-1.10903 1.1035,-1.14545 2.50183,-2.25585 3.55527,-3.05842 0.553383,-0.4201 1.26503,-1.07295 1.7597,-1.32608 0.42115,-0.1917 -1.05123,1.96182 -1.2716,2.21913 -0.804883,0.93405 -1.64257,2.06015 -2.48252,2.87372 -0.5083,0.490533 -1.01705,0.998033 -1.52528,1.49007 -0.259217,0.2509 -0.64575,0.6743 -0.853633,0.731417 -0.188683,0.0483333 -0.38655,-0.00688333 -0.292467,-0.300417 0.0464333,-0.142133 0.0870833,-0.3058 0.0474333,-0.3698 -0.01875,-0.08825 -0.0374167,-0.176717 -0.0558333,-0.2654z"/>
     </g>
     <g>
      <path id="_94791968" class="fil2" d="M3.08583 16.2005c-0.03395,-0.1683 0.132417,-0.48535 0.306983,-0.797333 0.215283,-0.3839 0.372283,-0.653683 0.7001,-0.9978 0.993133,-1.0306 2.25155,-2.03003 3.19945,-2.7522 0.498233,-0.378433 1.13893,-0.96605 1.58405,-1.19382 0.3792,-0.17255 -0.9463,1.76588 -1.1447,1.99752 -0.72415,0.840567 -1.47833,1.85415 -2.23415,2.58625 -0.45755,0.4413 -0.9152,0.898483 -1.37268,1.3409 -0.233067,0.225733 -0.58135,0.60715 -0.768017,0.657867 -0.17005,0.0438167 -0.3479,-0.00576667 -0.263667,-0.2699 0.0421333,-0.128067 0.0784,-0.275267 0.0429667,-0.332767 -0.0167833,-0.0796333 -0.0337333,-0.1591 -0.0503333,-0.238717z"/>
     </g>
     <g>
      <path id="_97057480" class="fil3" d="M5.33987 12.856c1.50792,-1.25768 3.08378,-3.04462 4.58223,-4.30172 1.08423,-0.9051 2.23692,-1.98808 3.34055,-3.05062 0.331433,-0.320033 3.26463,-3.34797 3.26618,-3.11028 -0.126833,0.634283 -3.14483,4.15987 -3.76362,4.90468 -0.981733,1.17923 -1.96287,2.372 -2.96878,3.50592 -1.2682,1.42765 -2.53748,2.85608 -3.81848,4.24138 -0.8991,0.968083 -2.0271,1.93012 -2.3877,1.57577 -0.158983,-0.169967 -0.315033,-0.862083 0.178017,-1.5771 0.513433,-0.7316 1.04565,-1.46052 1.5716,-2.18803z"/>
     </g>
     <g>
      <path id="_233038344" class="fil3" d="M5.29097 13.0933c1.35715,-1.13208 2.7755,-2.74065 4.12407,-3.872 0.976067,-0.814667 2.01333,-1.78928 3.00652,-2.74578 0.298333,-0.287867 2.93817,-3.01288 2.93975,-2.79905 -0.113617,0.570033 -2.83117,3.7445 -3.38738,4.41418 -0.883633,1.06123 -1.76627,2.13477 -2.67173,3.15517 -1.14165,1.28478 -2.28375,2.57083 -3.43693,3.81757 -0.809333,0.871383 -1.82407,1.73705 -2.14888,1.41817 -0.14335,-0.153133 -0.2833,-0.77625 0.1608,-1.41978 0.46175,-0.658333 0.9407,-1.3141 1.4138,-1.96847z"/>
     </g>
     <g>
      <path id="_234053336" class="fil3" d="M4.67487 13.9561c1.22163,-1.01898 2.4978,-2.46493 3.71202,-3.48467 0.878033,-0.733517 1.81168,-1.61035 2.70552,-2.47053 0.268567,-0.2597 2.6443,-2.71215 2.6458,-2.5197 -0.103383,0.514983 -2.54688,3.36882 -3.0487,3.97288 -0.795133,0.955167 -1.58953,1.92115 -2.40438,2.83962 -1.02763,1.1566 -2.05563,2.31455 -3.0934,3.43585 -0.728167,0.784017 -1.64182,1.56327 -1.93402,1.27623 -0.128733,-0.137717 -0.254817,-0.698817 0.144317,-1.27773 0.41595,-0.592483 0.847017,-1.18257 1.27285,-1.77195z"/>
     </g>
     <g>
      <path id="_234053432" class="fil4" d="M6.6297 12.2503c-0.565533,0.310883 -1.14188,0.431017 -1.80968,1.01052 -0.339983,0.2983 -0.586683,0.618383 -0.909583,0.974433l-0.6191 0.92855c-0.107333,0.21555 -0.238267,0.42885 -0.312183,0.628383 -0.08565,0.23095 -0.176367,0.413533 -0.125883,0.531183 0.0433167,0.0986 0.0535833,0.227283 0.0715,0.3532 0.0244,0.18185 -0.1234,0.516517 -0.07885,0.681017 0.0430333,0.147433 0.180217,0.1418 0.33175,0.141117 0.3332,0.00343333 0.93025,-0.5044 1.4463,-0.923133 0.916167,-0.749167 1.23233,-1.32765 1.7619,-2.30853 0.293517,-0.538467 0.738567,-1.27952 0.7539,-1.65027 0.0633333,-0.375683 -0.233333,-0.418567 -0.510067,-0.366467z"/>
     </g>
     <g>
      <path id="_234053528" class="fil5" d="M6.22253 12.9575c-0.5088,0.2798 -1.02763,0.388033 -1.6289,0.909617 -0.306083,0.2683 -0.52775,0.556583 -0.818283,0.876817l-0.557383 0.83575c-0.0967,0.19385 -0.21445,0.386117 -0.280983,0.565633 -0.0770167,0.20795 -0.158517,0.372117 -0.113433,0.47835 0.0389167,0.0885667 0.0483667,0.204317 0.06485,0.317183 0.0219667,0.163983 -0.111183,0.465 -0.0713833,0.613183 0.588533,0.0045 0.5564,0.14335 1.6003,-0.703817 0.824617,-0.674167 1.10895,-1.1948 1.5858,-2.0777 0.26415,-0.48465 0.664617,-1.15123 0.678383,-1.48515 0.057,-0.338183 -0.20985,-0.37665 -0.458967,-0.329867z"/>
     </g>
     <path id="_234053600" class="fil6" d="M5.96372 13.3773c-0.458117,0.251767 -0.924833,0.349217 -1.466,0.8186 -0.275267,0.241633 -0.4751,0.500683 -0.7365,0.789217 -0.2091,0.230583 -0.3807,0.509817 -0.501533,0.752083 -0.0867,0.17435 -0.192933,0.3472 -0.25285,0.509033 -0.0694,0.187167 -0.1427,0.335117 -0.101917,0.4303 0.0349167,0.0798 0.0434667,0.18425 0.0580167,0.2859 0.0196667,0.1473 -0.1,0.418367 -0.0641167,0.551533 0.0351667,0.1195 0.145733,0.115267 0.268667,0.114717 0.2702,0.0024 0.753467,-0.408983 1.17202,-0.7481 0.7418,-0.606633 0.9975,-1.07532 1.42668,-1.86985 0.237767,-0.436033 0.5985,-1.03643 0.610717,-1.33677 0.0514333,-0.303983 -0.18895,-0.3388 -0.413183,-0.296667z"/>
    </g>
   </g>
   <line id="_97057120" class="fil0" x1="17.0649" y1="1.24393" x2="2.7109" y2= "17.2132" />
   <g>
    <g>
     <g>
      <path id="_234053936" class="fil7" d="M2.12063 2.4707c2.89133,3.53502 5.82323,7.111 8.55717,10.6928 0.9421,1.23432 2.19405,2.85817 3.43175,3.8933 0.55895,0.45905 1.20162,0.7188 1.69893,0.87855 0.173883,-0.1136 0.348,-0.2269 0.521883,-0.340533 0.199833,-0.0414667 0.4,-0.0828 0.600083,-0.12405 0.0428333,-0.136267 0.0859,-0.27235 0.12875,-0.408633 0.0432833,-0.25745 -0.164167,-0.70925 -0.390633,-1.08242 -0.71255,-1.1664 -1.60247,-2.24522 -2.66637,-3.30378 -1.96807,-1.95478 -3.95463,-4.15892 -6.0223,-5.96658 -1.44148,-1.252 -2.84827,-2.6095 -4.31667,-3.7933 -0.670767,-0.53735 -1.40437,-1.05837 -2.07105,-1.39937 0.176267,0.31795 0.352133,0.63595 0.52845,0.954z"/>
     </g>
     <g>
      <path id="_233038872" class="fil8" d="M15.6612 17.4814c-0.197733,0.158133 -0.60475,-0.0264 -1.00607,-0.230067 -0.494833,-0.25175 -0.842467,-0.440083 -1.30557,-0.9479 -1.3869,-1.54415 -2.77485,-3.66023 -3.78288,-5.26918 -0.52835,-0.846283 -1.32997,-1.88278 -1.66915,-2.69583 -0.262633,-0.703517 2.26772,1.06603 2.57583,1.36107 1.11893,1.08025 2.45055,2.1335 3.44335,3.33595l1.81633 2.17765c0.305783,0.37075 0.816383,0.9023 0.904783,1.26607 0.0773,0.333 0.0429833,0.731233 -0.287933,0.690867 -0.160467,-0.0213333 -0.343633,-0.02125 -0.407917,0.0825167 -0.09365,0.0762833 -0.187267,0.152633 -0.280783,0.228867z"/>
     </g>
     <g>
      <path id="_233045688" class="fil8" d="M15.5498 17.2094c-0.17795,0.142317 -0.54425,-0.02365 -0.905567,-0.206933 -0.44505,-0.2265 -0.758167,-0.396233 -1.1748,-0.85315 -1.24827,-1.39102 -2.49683,-3.2933 -3.4047,-4.74235 -0.475517,-0.761833 -1.19685,-1.69447 -1.50197,-2.4262 -0.2364,-0.632833 2.04048,0.95885 2.31787,1.22475 1.00735,0.972667 2.20477,1.92003 3.09918,3.00235 0.538567,0.65595 1.09445,1.30473 1.63448,1.96003 0.27555,0.334 0.734717,0.811667 0.8147,1.13958 0.0690167,0.299567 0.0385667,0.657967 -0.25955,0.62155 -0.14435,-0.0191167 -0.309067,-0.0188333 -0.366817,0.0748 -0.0842167,0.0684833 -0.168517,0.137167 -0.252833,0.205567z"/>
     </g>
     <g>
      <path id="_233038608" class="fil8" d="M15.8928 17.5105c-0.160067,0.128017 -0.489917,-0.0214167 -0.814833,-0.186233 -0.4005,-0.2038 -0.682667,-0.356733 -1.0574,-0.767983 -1.12353,-1.25103 -2.24757,-2.96467 -3.0643,-4.26817 -0.4279,-0.68545 -1.07713,-1.5247 -1.35182,-2.18322 -0.2129,-0.570183 1.83655,0.86305 2.08612,1.1021 0.906217,0.875033 1.98505,1.72793 2.78922,2.70193 0.484833,0.590383 0.984767,1.17448 1.47122,1.76412 0.248017,0.300683 0.661,0.73055 0.732967,1.02577 0.06255,0.26965 0.0347667,0.592183 -0.233367,0.559467 -0.129867,-0.0172 -0.278267,-0.0172333 -0.3301,0.0671 -0.07595,0.0618 -0.151783,0.12355 -0.2277,0.185117z"/>
     </g>
     <g>
      <path id="_233038440" class="fil8" d="M15.895 17.5203c-0.1444,0.115 -0.44085,-0.0192333 -0.733517,-0.1678 -0.36045,-0.183317 -0.6144,-0.320983 -0.951617,-0.691083 -1.01112,-1.12583 -2.02267,-2.66792 -2.7577,-3.8411 -0.385167,-0.617067 -0.9695,-1.37255 -1.21685,-1.96535 -0.1915,-0.512933 1.65327,0.7772 1.87783,0.992267 0.81545,0.787433 1.78652,1.5553 2.51018,2.43177 0.436233,0.531367 0.886483,1.05678 1.3239,1.58763 0.22305,0.270317 0.595083,0.6575 0.659617,0.92285 0.05635,0.24295 0.0312833,0.532867 -0.209883,0.503883 -0.117,-0.0157 -0.250433,-0.0156167 -0.297383,0.06005 -0.0682333,0.0556167 -0.1363,0.1113 -0.204583,0.166883z"/>
     </g>
     <g>
      <path id="_233040072" class="fil9" d="M12.7159 15.344c-1.2651,-1.82502 -3.00295,-3.55442 -4.26638,-5.36522 -0.910417,-1.3122 -1.98422,-2.66133 -3.03503,-3.94348 -0.31655,-0.384883 -3.28862,-3.71583 -3.07978,-3.80787 0.571517,-0.0456167 3.99042,3.22695 4.7107,3.8896 1.14068,1.05242 2.29313,2.09858 3.39637,3.20508 1.38953,1.39595 2.7796,2.79228 4.13305,4.22343 0.946117,1.00577 1.91103,2.36315 1.63728,3.04702 -0.13285,0.306333 -0.72545,0.805217 -1.40628,0.323033 -0.6976,-0.5071 -1.39462,-1.04382 -2.08992,-1.5716z"/>
     </g>
     <g>
      <path id="_233045280" class="fil9" d="M12.9295 15.3292c-1.13848,-1.64258 -2.70283,-3.199 -3.83992,-4.8288 -0.819517,-1.18103 -1.78597,-2.39522 -2.73163,-3.54925 -0.284833,-0.346283 -2.95967,-3.34423 -2.7717,-3.42708 0.51345,-0.0416333 3.59185,2.90502 4.23953,3.5009 1.0266,0.947167 2.06385,1.8885 3.0567,2.8843 1.25057,1.25642 2.50185,2.5133 3.71998,3.8015 0.851733,0.905367 1.71977,2.12647 1.4734,2.74205 -0.119667,0.275833 -0.652983,0.724467 -1.26607,0.290267 -0.627517,-0.456117 -1.25473,-0.93905 -1.8803,-1.41388z"/>
     </g>
     <g>
      <path id="_97059496" class="fil9" d="M13.7535 15.943c-1.02477,-1.47843 -2.43148,-2.87913 -3.456,-4.34602 -0.737417,-1.06278 -1.6071,-2.15567 -2.4581,-3.19408 -0.2566,-0.3119 -2.66383,-3.00967 -2.49477,-3.08448 0.464033,-0.0363167 3.2317,2.6134 3.81572,3.1508 0.924017,0.8524 1.85732,1.69963 2.75098,2.59597 1.12547,1.13067 2.25225,2.26163 3.34808,3.4213 0.766183,0.814617 1.54775,1.91412 1.32602,2.4679 -0.107683,0.248133 -0.587817,0.651933 -1.13937,0.26145 -0.564967,-0.410717 -1.12945,-0.84535 -1.69257,-1.27283z"/>
     </g>
     <g>
      <path id="_97057432" class="fil10" d="M12.0472 13.6056c0.332867,0.745233 0.499333,1.57863 1.07922,2.37855 0.298117,0.40605 0.605833,0.661517 0.952867,1.01962l0.882017 0.59395c0.200833,0.0824833 0.40225,0.201567 0.58575,0.239267 0.212133,0.04325 0.382383,0.1126 0.4805,-0.0085 0.08215,-0.10315 0.194283,-0.167433 0.30305,-0.242367 0.157617,-0.10585 0.467467,-0.00656667 0.607433,-0.136283 0.125283,-0.121467 0.105933,-0.328233 0.0893833,-0.559267 -0.0319667,-0.5091 -0.541533,-1.22818 -0.964183,-1.85725 -0.7552,-1.11467 -1.29742,-1.37823 -2.21633,-1.81642 -0.5045,-0.244283 -1.20303,-0.6436 -1.53083,-0.527017 -0.337333,0.0450167 -0.343717,0.513317 -0.268867,0.915717z"/>
     </g>
     <g>
      <path id="_233045712" class="fil11" d="M12.7122 13.9598c0.2995,0.670717 0.449533,1.4208 0.9714,2.14073 0.268333,0.365433 0.545133,0.595083 0.857483,0.917383l0.793967 0.534817c0.18065,0.07425 0.36195,0.1814 0.527067,0.2153 0.191117,0.0389833 0.344117,0.101167 0.432617,-0.00763333 0.0741333,-0.0926833 0.174817,-0.15075 0.272533,-0.218383 0.141817,-0.0952167 0.420683,-0.00585 0.5469,-0.122283 -0.0579333,-0.89905 0.0674333,-0.90275 -0.7876,-2.17505 -0.679583,-1.00322 -1.16752,-1.24032 -1.99452,-1.63477 -0.454183,-0.219867 -1.08277,-0.57935 -1.37793,-0.474283 -0.303517,0.04045 -0.309433,0.462017 -0.241917,0.824167z"/>
     </g>
     <path id="_233045616" class="fil12" d="M13.1087 14.1961c0.269667,0.603717 0.404483,1.27878 0.87435,1.92687 0.241317,0.328667 0.490467,0.535683 0.771683,0.8255 0.22505,0.23195 0.4886,0.388183 0.714567,0.48135 0.162367,0.0664833 0.325567,0.163133 0.4741,0.193667 0.171983,0.0352 0.310033,0.0914 0.389433,-0.00695 0.06655,-0.0833333 0.157317,-0.1355 0.245417,-0.19615 0.127633,-0.0857333 0.378517,-0.00536667 0.49195,-0.110367 0.101467,-0.0984 0.0861,-0.26575 0.0725667,-0.453017 -0.0261667,-0.412733 -0.43865,-0.994833 -0.7813,-1.50467 -0.611533,-0.9027 -1.05075,-1.11608 -1.79485,-1.47095 -0.408717,-0.197883 -0.9747,-0.521567 -1.24033,-0.427 -0.272967,0.0363 -0.278317,0.415883 -0.217583,0.741717z"/>
    </g>
   </g>
   <line id="_233045520" class="fil0" x1="1.26715" y1="1.84332" x2="16.8253" y2= "17.71" />
  </g>
 </g>
</svg>
