<?xml version="1.0" encoding="UTF-8"?>
<!DOCTYPE svg PUBLIC "-//W3C//DTD SVG 1.1//EN" "http://www.w3.org/Graphics/SVG/1.1/DTD/svg11.dtd">
<svg xmlns="http://www.w3.org/2000/svg" xml:space="preserve" width="16px" height="16px" style="shape-rendering:geometricPrecision; text-rendering:geometricPrecision; image-rendering:optimizeQuality; fill-rule:evenodd; clip-rule:evenodd"
viewBox="0 0 16 16"
 xmlns:xlink="http://www.w3.org/1999/xlink">
 <defs>
  <style type="text/css">
   <![CDATA[
    .fil0 {fill:url(#id0)}
   ]]>
  </style>
  <radialGradient id="id0" gradientUnits="userSpaceOnUse" cx="7.99997" cy="7.99997" r="5.30182" fx="7.99997" fy="7.99997">
   <stop offset="0" style="stop-color:#0093DD"/>
   <stop offset="1" style="stop-color:#28166F"/>
  </radialGradient>
 </defs>
 <g id="Layer_x0020_1">
  <metadata id="CorelCorpID_0Corel-Layer"/>
  <path class="fil0" d="M7.84486 0.277312l0.31024 0c0.767936,0 1.39616,0.628224 1.39616,1.39616l0 2.58131 1.82525 -1.82528c0.54304,-0.543008 1.43149,-0.543008 1.97453,0l0.219392 0.21936c0.542976,0.54304 0.542976,1.43149 -3.2e-005,1.97446l-1.82538 1.82538 2.5815 0c0.767936,0 1.39616,0.628224 1.39616,1.39616l0 0.31024c0,0.767936 -0.628224,1.39616 -1.39616,1.39616l-2.58144 0 1.82534 1.82534c0.54304,0.542976 0.54304,1.43146 0,1.97446l-0.21936 0.21936c-0.543008,0.54304 -1.43149,0.54304 -1.97446,0l-1.82534 -1.82534 0 2.58144c0,0.767936 -0.628224,1.39616 -1.39616,1.39616l-0.31024 0c-0.767936,0 -1.39616,-0.628224 -1.39616,-1.39616l0 -2.58144 -1.82538 1.82534c-0.542976,0.542976 -1.43142,0.542976 -1.97446,0l-0.21936 -0.219392c-0.542976,-0.54304 -0.543008,-1.43146 0,-1.97446l1.82531 -1.82531 -2.58134 0c-0.767936,0 -1.39616,-0.628224 -1.39616,-1.39616l0 -0.31024c0,-0.767936 0.628224,-1.39616 1.39616,-1.39616l2.58141 0 -1.82531 -1.82531c-0.54304,-0.54304 -0.54304,-1.43146 0,-1.97446l0.21936 -0.21936c0.543008,-0.54304 1.43142,-0.54304 1.97446,0l1.82531 1.82531 0 -2.58141c0,-0.767936 0.628224,-1.39616 1.39616,-1.39616z"/>
 </g>
</svg>
